<?xml version="1.0" standalone="no"?>
<!DOCTYPE svg PUBLIC "-//W3C//DTD SVG 1.1//EN" "http://www.w3.org/Graphics/SVG/1.1/DTD/svg11.dtd" >
<svg xmlns="http://www.w3.org/2000/svg">
<metadata>
Created by FontPrep 20130207 at Sat Jul 26 16:16:18 2014
 By Jeffrey Lang
Copyright (c) 2012, Vicente Lamonaca (produccion.taller@gmail.com www.tipografia-montevideo.info www.tipotype.com)
</metadata>
<defs>
<font id="d9532a473398f70deb182a9f6b5ed782" horiz-adv-x='1024' >
  <font-face 
    font-family="Economica-Bold"
    font-weight="700"
    font-stretch="normal"
    units-per-em="2048"
    panose-1="2 0 5 6 3 0 0 2 0 4"
    ascent="1638"
    descent="-410"
    x-height="1100"
    cap-height="1475"
    bbox="-94 -391.059 1489.02 1919.08"
    underline-thickness="49"
    underline-position="-51"
    unicode-range="U+0020-FB04"
  />
<missing-glyph horiz-adv-x="389" 
 />
    <glyph glyph-name="fi" unicode="fi" horiz-adv-x="864" 
d="M573 1100q137 0 160 -16t23 -107v-985q-137 0 -160 15t-23 108v813h-278l20 -60v-1108q-1 -109 -23 -126t-159 -17l2 1251l19 60h-113v172h113l-19 51v102q0 31 6 77q7 46 13 60t28 36q22 24 41 28q98 20 158 21h377v-146h-254q-139 -1 -163 -23t-24 -159l-20 -47h276z
" />
    <glyph glyph-name="fl" unicode="fl" horiz-adv-x="888" 
d="M504 1329q-139 -1 -163 -23t-24 -159l-20 -47h203v-172h-205l20 -60v-1108q-1 -109 -23 -126t-159 -17l2 1251l19 60h-113v172h113l-19 51v102q0 31 6 77q7 46 13 60t28 36q22 24 41 28q98 20 158 21h227q135 1 159 -15t24 -110v-1358q-137 0 -160 15t-23 108v1214h-104z
" />
    <glyph glyph-name="f_f_i" unicode="ffi" horiz-adv-x="1353" 
d="M1055 115v813h-307l20 -60v-1169q0 -16 -8 -39t-14 -27q-26 -16 -82 -16h-78l2 1251l18 60h-311l20 -60v-1108q-1 -109 -23 -126t-159 -17l2 1251l19 60h-113v172h113l-19 51v102q0 31 6 77q7 46 13 60t28 36q22 24 41 28q98 20 158 21h123v-146q-139 -1 -163 -23
t-24 -159l-20 -47h309l-18 51v102q0 31 6 77t12 60t28 36q22 24 42 28q99 20 158 21h403v-146h-283q-136 1 -160 -23t-24 -159l-20 -47h305q137 0 159 -16t23 -107v-985q-137 0 -160 15q-22 16 -22 108z" />
    <glyph glyph-name="f_f_l" unicode="ffl" horiz-adv-x="1384" 
d="M1282 1350v-1358q-137 0 -160 15t-22 108v1214h-139q-139 -1 -163 -23t-24 -159l-20 -47h202v-172h-204l20 -60v-1108q-2 -109 -24 -126t-158 -17l2 1251l18 60h-315l20 -60v-1108q-1 -109 -23 -126t-159 -17l2 1251l19 60h-113v172h113l-19 51v102q0 31 6 77q7 46 13 60
t28 36q22 24 41 28q98 20 158 21h123v-146q-139 -1 -163 -23t-24 -159l-20 -47h313l-18 51v102q0 31 6 77t12 60t28 36q22 24 42 28q99 20 158 21h262q134 1 158 -15t24 -110z" />
    <glyph glyph-name="E_s" unicode="Es" horiz-adv-x="1394" 
d="M1133 336q-1 37 -59 90t-127 104t-127 128t-58 145q0 69 2 101t17 80t46 71q78 59 230 59l239 -49q-16 -119 -31 -132t-47 -13t-75 6l-80 14q-84 0 -100 -33q-17 -33 -17 -80t60 -100t132 -102q73 -49 132 -122t59 -145t-2 -108t-17 -96q-15 -58 -44 -90
q-73 -79 -230 -78l-913 14v1475h582v-175h-400l19 -51v-313l-19 -51h375v-183h-373l17 -47v-422l-19 -51l733 -22q49 0 72 28t23 148z" />
    <glyph glyph-name="E_S" unicode="ES" horiz-adv-x="1548" 
d="M1100 182q98 0 137 41t41 131q2 27 2 77q0 49 -35 103t-65 80t-129 114q-100 87 -190 187q-91 99 -91 224q0 217 45 266q70 72 150 83t170 11l278 -59q-16 -117 -47 -137q-30 -26 -143 0l-78 14q-121 0 -145 -44t-25 -125q0 -81 207 -255q98 -78 153 -131t105 -129
t49 -144q0 -68 -2 -152t-23 -133q-50 -122 -118 -161q-104 -57 -250 -57l-973 14v1475h582v-175h-400l19 -51v-313l-19 -51h375v-183h-373l17 -47v-422l-19 -51h795z" />
    <glyph glyph-name="c_s" unicode="cs" horiz-adv-x="1286" 
d="M92 426v254q0 139 16 224t33 107q18 21 41 46q54 59 217 57l191 -49q-10 -69 -16 -97t-24 -47q-17 -19 -42 -17t-72 22l-37 14q-47 0 -73 -16q-42 -26 -50 -187q-2 -53 -2 -182t2 -183q6 -161 51 -194q26 -18 72 -18l224 20l274 -20q49 0 71 28t23 154q0 49 -184 188
q-70 51 -128 128t-58 145q0 69 2 101t17 80t44 71q80 59 231 59l240 -49q-15 -119 -31 -132t-48 -13t-75 6l-79 14q-84 0 -100 -33t-17 -93q0 -60 191 -189q73 -49 132 -122q60 -73 60 -145t-2 -108t-18 -96q-16 -58 -44 -90q-29 -32 -87 -56t-142 -22l-272 34l-224 -34
q-166 0 -217 59q-23 25 -38 43t-34 107q-18 88 -18 231z" />
    <glyph glyph-name="o_t" unicode="ot" horiz-adv-x="1378" 
d="M408 940q-92 0 -112 -75t-22 -258q0 -183 2 -237q6 -161 55 -193q28 -17 77 -17q92 0 112 78t21 262q0 184 -2 237q-6 154 -55 186q-27 17 -76 17zM92 545v127q0 247 37 310q13 25 31 52t41 37q23 11 63 27t144 16h561l-17 62v104q137 0 161 -13t24 -98l-17 -55h205
q1 -118 -21 -146t-126 -28h-60l19 -51v-418q0 -174 13 -239t56 -72h156v-160l-166 -10q-102 0 -135 20t-49 32q-60 47 -60 302v545l17 51h-269q25 -90 25 -385v-115q0 -257 -37 -318q-14 -23 -32 -51t-41 -39t-63 -29q-40 -17 -122 -17t-139 8t-121 63q-32 25 -55 114
q-23 90 -23 374z" />
    <glyph glyph-name="x_t" unicode="xt" horiz-adv-x="1335" 
d="M877 1280q139 0 161 -13t23 -98l-17 -69h205q1 -117 -21 -145t-126 -27h-60l19 -51v-406q0 -174 13 -239t56 -72h156v-160l-166 -10q-100 0 -134 20t-54 35t-37 87q-18 71 -18 212v533l16 51h-301q-20 -61 -129 -353l231 -575h-190l-152 426h-16l-133 -426
q-133 0 -148 12q-23 23 -8 51l199 531l-201 506q141 0 172 -14t59 -91l74 -254h19l104 359h420l-16 76v104z" />
    <glyph glyph-name="f_u" unicode="fu" horiz-adv-x="1245" 
d="M993 1100q137 0 161 -16t24 -107v-977q-121 0 -152 7t-33 48l-131 -69q-162 0 -252 80q-57 49 -65 270q-4 68 -4 219v373h-246l20 -60v-1108q-1 -109 -23 -126t-159 -17l2 1251l19 60h-113v172h113l-19 51v102q0 31 6 77q7 46 13 60t28 36q22 24 41 28q98 20 158 21h123
v-146q-139 -1 -163 -23t-24 -159l-20 -47h244q137 0 159 -16t23 -107v-418q0 -241 11 -279t24 -67q20 -49 84 -53l172 71l-21 62v807z" />
    <glyph glyph-name="f_t" unicode="ft" horiz-adv-x="1083" 
d="M586 1280q139 0 162 -13t22 -98l-16 -69h204q0 -117 -22 -145t-125 -27h-59l18 -51v-406q0 -174 13 -239t57 -72h155v-160l-166 -10q-100 0 -134 20t-54 35t-37 87q-18 71 -18 212v533l16 51h-307l20 -60v-1108q-1 -109 -23 -126t-159 -17l2 1251l19 60h-113v172h113
l-19 51v102q0 31 6 77q7 46 13 60t28 36q22 24 41 28q98 20 158 21h123v-146q-139 -1 -163 -23t-24 -159l-20 -47h305l-16 76v104z" />
    <glyph glyph-name=".notdef" horiz-adv-x="389" 
 />
    <glyph glyph-name=".null" horiz-adv-x="0" 
 />
    <glyph glyph-name="nonmarkingreturn" horiz-adv-x="681" 
 />
    <glyph glyph-name="space" unicode=" " horiz-adv-x="389" 
 />
    <glyph glyph-name="exclam" unicode="!" horiz-adv-x="497" 
d="M262 1446q46 0 98 -4l-47 -979q-4 -43 -4 -52t-9 -31t-13 -22l-64 -8l-94 8l29 975q2 85 30 99t74 14zM186 0q-48 0 -83 39q-34 39 -33 87q0 48 40 82t89 34t82 -40t33 -89t-40 -81t-88 -32z" />
    <glyph glyph-name="quotedbl" unicode="&#x22;" horiz-adv-x="710" 
d="M535 1499q111 0 110 -110q0 -41 -38 -133t-75 -162l-38 -72l-101 57l-10 35q45 114 45 180l-18 84q0 51 36 86q37 35 89 35zM209 1499q111 0 110 -110q1 -41 -37 -133t-77 -162l-37 -72l-100 57l-11 35q45 114 45 180l-18 84q0 51 37 86t88 35z" />
    <glyph glyph-name="numbersign" unicode="#" horiz-adv-x="1318" 
d="M588 883l-101 -250h254l101 250h-254zM121 1040h362l179 447h167l-176 -447h254l178 447h168l-178 -447h209v-157h-274l-99 -250h289v-158h-352l-191 -475h-168l189 475h-254l-191 -475h-167l188 475h-217v158h280l101 250h-297v157z" />
    <glyph glyph-name="dollar" unicode="$" horiz-adv-x="802" 
d="M469 313q0 86 -187 228q-71 53 -129 128t-59 137q0 62 1 90t13 72q11 44 31 66q53 59 168 74l2 174q113 0 131 -14t19 -105l2 -80l123 -24q-18 -99 -32 -115t-38 -16q-23 0 -43 4l-80 14q-23 4 -40 4q-51 0 -67 -36q-49 -113 45 -204q60 -60 133 -108t133 -115t60 -137
q0 -124 -24 -211q-29 -111 -162 -143l-2 -232q-113 0 -131 16t-21 103l-2 111q-33 6 -99 14t-97 15v145q262 -32 302 -10q19 10 35 26t15 129z" />
    <glyph glyph-name="percent" unicode="%" horiz-adv-x="1302" 
d="M1030 1475l-590 -1475h-204l591 1475h203zM903 337q0 -73 2 -125t20 -67q17 -14 40 -14t35 11q24 23 24 146q0 122 -9 171t-51 49t-55 -55q-6 -43 -6 -116zM780 322q0 180 43 246t141 65q98 0 137 -66q40 -67 40 -247t-41 -250t-136 -70t-140 71q-44 71 -44 251z
M282 1339q-26 -25 -26 -147t6 -158t20 -48q14 -11 36 -11t34 11q25 23 25 176t-26 177q-13 13 -35 13t-34 -13zM133 1165q0 180 43 246t140 66q98 0 138 -66t40 -247t-41 -251q-41 -69 -137 -69t-139 70q-44 70 -44 251z" />
    <glyph glyph-name="ampersand" unicode="&#x26;" horiz-adv-x="1128" 
d="M879 432q-1 -225 -95 -336q-94 -110 -304 -110t-304 110t-94 334q0 225 147 365q-53 45 -81 102t-27 162q0 358 301 358l264 -20q0 -94 -14 -118t-76 -26l-174 -4q-59 0 -90 -38q-31 -39 -31 -153t39 -145t139 -30v-174q-92 -4 -154 -79t-63 -206q0 -270 218 -270
t218 278v221l11 56h-105v163h105l-11 43v91q129 0 155 -18t26 -111l182 -5q0 -52 -3 -76q-2 -24 -20 -48t-55 -32q-37 -7 -104 -7h-27l27 -60v-217z" />
    <glyph glyph-name="quotesingle" unicode="'" horiz-adv-x="376" 
d="M207 1499q111 0 110 -110q1 -41 -37 -133t-75 -162l-39 -72l-100 57l-11 35q45 114 45 180l-18 84q0 51 37 86t88 35z" />
    <glyph glyph-name="parenleft" unicode="(" horiz-adv-x="555" 
d="M72 670q0 178 2 267q7 305 53 397q82 163 198 196q75 20 183 20q0 -119 -16 -139t-115 -20q-79 0 -97 -157t-18 -604q0 -446 24 -566t91 -119q99 -1 115 -21t16 -139q-158 0 -277 63q-70 39 -125 209q-30 95 -32 359q-2 76 -2 254z" />
    <glyph glyph-name="parenright" unicode=")" horiz-adv-x="550" 
d="M479 657q0 -190 -2 -277t-14 -212t-38 -176q-26 -50 -74 -110t-123 -78t-183 -19q0 119 16 139t115 21q78 0 95 148t18 599q0 451 -24 575t-89 124q-98 0 -115 20q-16 20 -16 139q106 0 182 -20t123 -80t74 -116q46 -93 53 -397q2 -90 2 -280z" />
    <glyph glyph-name="asterisk" unicode="*" horiz-adv-x="657" 
d="M399 942l-69 156l-74 -152l-147 82l112 131l-166 -20v168l168 -21l-114 135l145 84l76 -153l67 155l148 -84l-109 -137l164 21l2 -168l-170 20l117 -135z" />
    <glyph glyph-name="plus" unicode="+" horiz-adv-x="552" 
d="M358 397h-165v135l10 52h-166v151h166l-10 51v134h165v-134l-12 -51h170v-151h-170l12 -47v-140z" />
    <glyph glyph-name="comma" unicode="," horiz-adv-x="354" 
d="M205 244q111 0 110 -111q1 -41 -37 -132t-77 -163l-37 -71l-101 57l-10 35q45 114 45 180l-18 84q0 51 37 86t88 35z" />
    <glyph glyph-name="hyphen" unicode="-" horiz-adv-x="667" 
d="M92 743h481v-168h-481v168z" />
    <glyph glyph-name="period" unicode="." horiz-adv-x="372" 
d="M63 124q0 50 37 85t86 35t86 -35t37 -85t-37 -87t-86 -37t-86 37t-37 87z" />
    <glyph glyph-name="slash" unicode="/" horiz-adv-x="815" 
d="M795 1475l-588 -1858h-195l586 1858h197z" />
    <glyph glyph-name="zero" unicode="0" horiz-adv-x="839" 
d="M313 811q0 -246 2 -322q1 -77 15 -167t44 -123t83 -33q96 0 118 124q23 124 23 370t-2 320q-2 75 -15 164t-43 120t-81 30q-98 1 -121 -118t-23 -365zM123 752q0 178 3 263q10 282 69 353q90 106 262 107q82 1 139 -15q87 -24 152 -160q40 -86 40 -533q0 -224 -3 -310
q-10 -288 -68 -359q-88 -113 -260 -112q-83 0 -141 16t-95 68t-57 97q-20 43 -28 151t-11 182q-2 74 -2 252z" />
    <glyph glyph-name="one" unicode="1" horiz-adv-x="839" 
d="M543 1327v-1116l-13 -29h234v-182h-641q0 131 19 157t128 25h95l-13 29v1063l-123 -21v174l154 23h14q106 0 126 -16t20 -107z" />
    <glyph glyph-name="two" unicode="2" horiz-adv-x="839" 
d="M760 178v-178h-633v473q0 137 152 281q63 61 127 120q152 141 151 261q0 79 -17 109q-18 30 -54 40t-95 10h-135q-100 0 -116 20t-17 138l274 23q186 0 254 -45q41 -25 64 -49q43 -45 45 -240q0 -156 -154 -303q-63 -61 -127 -121q-154 -143 -153 -258v-269l-2 -12h436z
" />
    <glyph glyph-name="three" unicode="3" horiz-adv-x="839" 
d="M385 160q98 0 116 58q17 58 17 280t-17 275q-17 54 -106 54h-145l188 451h-313v172h584l-191 -457q98 -14 150 -75q35 -41 41 -193q2 -51 2 -156v-71q0 -332 -44 -422t-261 -90q-76 0 -165 15t-118 19v160q164 -20 262 -20z" />
    <glyph glyph-name="four" unicode="4" horiz-adv-x="839" 
d="M489 676v411l-186 -440h199zM752 475h-90q0 -14 12 -26l-4 -449q-133 0 -157 15t-24 108v321l13 31h-482l455 975h199v-774l-12 -29h90v-172z" />
    <glyph glyph-name="five" unicode="5" horiz-adv-x="839" 
d="M457 997q85 0 117 -14q32 -13 50 -23t31 -34t23 -39q32 -55 33 -285v-221q0 -127 -6 -163q-5 -36 -13 -77t-19 -54t-29 -38t-38 -33l-53 -16q-43 -14 -150 -14l-280 14v160h272q88 0 107 58q18 58 18 280t-17 275q-17 54 -108 54h-272v625l567 -2v-172h-387q0 -14 12 -27
v-223l-10 -31h152z" />
    <glyph glyph-name="six" unicode="6" horiz-adv-x="839" 
d="M760 512v-115q0 -239 -37 -291l-33 -44t-41 -30t-59 -20q-36 -12 -122 -12q-85 0 -140 10t-124 73q-33 30 -57 129t-24 359v177q0 178 14 306t29 167q14 39 33 86q18 47 44 73q27 26 71 60q44 35 153 35l264 -25q0 -115 -16 -135t-115 -21h-133q-63 0 -91 -70t-44 -243
l100 31q232 0 280 -86t48 -414zM442 172q90 0 109 57q18 57 18 273t-19 275q-19 60 -99 63l-136 -39l-2 -197v-80q1 -288 55 -330q28 -22 74 -22z" />
    <glyph glyph-name="seven" unicode="7" horiz-adv-x="839" 
d="M135 1278v172h639v-137l-495 -1313h-197l473 1278h-420z" />
    <glyph glyph-name="eight" unicode="8" horiz-adv-x="839" 
d="M293 1098q0 -213 115 -213t114 213q0 213 -114 213t-115 -213zM406 166q70 0 110 70t41 194q0 124 -48 199q-49 73 -105 73t-104 -74t-48 -199q0 -123 42 -193t112 -70zM406 -14q-154 0 -249 116t-96 336q0 219 150 357q-111 123 -111 319t87 286q87 89 219 89t219 -90
q88 -90 88 -291t-107 -328q144 -133 144 -346q0 -212 -95 -330t-249 -118z" />
    <glyph glyph-name="nine" unicode="9" horiz-adv-x="839" 
d="M754 1155q6 -94 6 -359t-10 -342q-27 -195 -51 -244q-60 -125 -113 -157q-88 -53 -195 -53l-260 25v153h264q68 0 104 79t52 253l-105 -49q-229 0 -276 87t-47 382t9 335q25 113 44 129q18 18 41 38q46 41 199 42q153 2 198 -20q44 -22 66 -38t37 -58q16 -43 24 -76
q7 -33 13 -127zM332 1245q-18 -57 -18 -269t22 -276q23 -64 102 -65l129 49l2 184q0 303 -18 369q-17 65 -109 65t-110 -57z" />
    <glyph glyph-name="colon" unicode=":" horiz-adv-x="393" 
d="M82 980q0 50 37 85t87 35t87 -35t37 -85t-38 -87t-87 -37t-86 37t-37 87zM192 244q50 0 87 -35t37 -85t-38 -87q-36 -37 -86 -37t-86 37q-37 37 -36 87q0 50 36 85t86 35z" />
    <glyph glyph-name="semicolon" unicode=";" horiz-adv-x="387" 
d="M205 244q111 0 110 -111q1 -41 -37 -132t-77 -163l-37 -71l-101 57l-10 35q45 114 45 180l-18 84q0 51 37 86t88 35zM92 980q0 50 37 85t87 35t87 -35t37 -85t-37 -87t-87 -37t-87 37t-37 87z" />
    <glyph glyph-name="less" unicode="&#x3c;" horiz-adv-x="546" 
d="M25 578v69l268 453h188l-286 -488l288 -503h-190z" />
    <glyph glyph-name="equal" unicode="=" horiz-adv-x="753" 
d="M92 571h592v-170h-592v170zM92 842h592v-170h-592v170z" />
    <glyph glyph-name="greater" unicode="&#x3e;" horiz-adv-x="542" 
d="M518 647v-69l-268 -469h-187l285 503l-285 488h187z" />
    <glyph glyph-name="question" unicode="?" horiz-adv-x="696" 
d="M129 385v88q2 93 51 189q50 96 108 164t106 154q48 85 48 140t-4 79t-20 48q-31 47 -152 47h-73q-99 0 -115 20t-17 136l213 25q148 -1 198 -21t76 -32t42 -44q16 -30 30 -56t13 -122v-80q0 -96 -48 -191t-106 -161q-156 -178 -166 -295v-88h-184zM94 124q0 50 37 85
t86 35t86 -35t37 -85t-37 -87t-86 -37t-86 37t-37 87z" />
    <glyph glyph-name="at" unicode="@" horiz-adv-x="1112" 
d="M756 838v-373h4q82 0 97 20t15 101v321q0 39 -36 39h-9l-473 -28q-46 -2 -70 -20t-27 -36t-3 -57q0 -399 20 -527t115 -128h350q93 0 111 -32t18 -149h-485q-176 0 -236 119q-59 119 -63 473v227q0 160 48 225t220 74l467 27h19q116 0 158 -53t42 -164v-307
q0 -199 -34 -232q-48 -45 -110 -49t-134 -4h-21q-70 0 -98 35q-10 12 -23 35l-102 -80q-49 0 -72 1q-22 1 -46 13q-24 11 -32 23q-22 34 -22 129v188q0 184 293 189h119zM598 678l-88 -8l-23 -129q-2 -49 19 -80l92 43v174z" />
    <glyph glyph-name="A" unicode="A" horiz-adv-x="925" 
d="M440 1102l-75 -400l-17 -34h211q-2 2 -10 19t-8 20l-80 395h-21zM817 0q-104 0 -126 16t-40 109l-69 346h-258l-84 -471h-47q-98 0 -125 11t-27 53t311 1411h197l336 -1475h-68z" />
    <glyph glyph-name="B" unicode="B" horiz-adv-x="907" 
d="M442 150q145 0 186 54q40 54 40 166t-6 162t-27 99q-43 100 -193 100h-141l18 -43v-495l-18 -43h141zM401 877q123 1 154 35t31 169t-34 187t-151 53h-94l15 -43v-360l-19 -41h98zM768 1159v-82q0 -111 -10 -163t-45 -101q73 -63 103 -144t30 -253t-11 -211
q-27 -96 -53 -119q-72 -62 -147 -81q-74 -20 -191 -19l-321 16v1475l280 22q184 0 256 -53q29 -20 48 -38t40 -83q21 -64 21 -166z" />
    <glyph glyph-name="C" unicode="C" horiz-adv-x="823" 
d="M303 750q0 -150 3 -222q4 -72 18 -162t49 -128q35 -37 94 -37t161 9t134 11v-198q-18 -1 -122 -19t-189 -18q-86 0 -172 46q-57 29 -108 122q-69 127 -69 456v277q0 147 18 270t41 162q63 108 118 135q90 45 196 45l285 -65q-16 -119 -62 -148q-26 -14 -70 -14t-106 12
l-57 14q-57 0 -92 -36q-54 -56 -67 -291q-3 -71 -3 -221z" />
    <glyph glyph-name="D" unicode="D" horiz-adv-x="983" 
d="M512 168q68 0 100 47q18 27 32 51t21 74l12 84q9 63 9 207v235q0 144 -7 190t-14 94t-21 72t-32 48q-33 47 -100 47h-211l16 -51v-1047l-18 -51h213zM881 786v-176q0 -152 -19 -277t-41 -163q-62 -111 -112 -137q-86 -47 -197 -47l-389 14v1479l389 20q106 0 179 -42
t110 -95t55 -171t22 -197q3 -79 3 -208z" />
    <glyph glyph-name="E" unicode="E" horiz-adv-x="827" 
d="M766 182v-182h-643v1475h622v-175h-440l19 -51v-313l-19 -51h416v-183h-414l17 -47v-422l-19 -51h461z" />
    <glyph glyph-name="F" unicode="F" horiz-adv-x="806" 
d="M721 885v-183h-414l17 -47v-655h-52q-111 0 -130 15t-19 110v1350h622v-175h-440l19 -51v-313l-19 -51h416z" />
    <glyph glyph-name="G" unicode="G" horiz-adv-x="940" 
d="M317 866v-235q-1 -143 7 -193t15 -98q7 -49 20 -74q13 -26 31 -52q32 -47 92 -46q59 0 182 20l-17 52v393q-1 113 15 131t108 18h68v-762q-36 -4 -144 -19t-186 -15q-202 0 -276 105q-28 40 -48 77t-41 160q-20 123 -20 282v140q0 166 3 244t21 197q17 118 55 171t110 95
t180 42l305 -65q-16 -117 -56 -138q-18 -8 -58 -8t-114 15l-77 14q-68 0 -101 -47q-18 -25 -33 -51t-30 -150q-11 -60 -11 -203z" />
    <glyph glyph-name="H" unicode="H" horiz-adv-x="952" 
d="M313 125q0 -93 -19 -109t-128 -16h-43v1475h43q109 1 128 -15t19 -110v-414l-8 -51h338l-6 51v539h45q109 1 128 -15t19 -110v-1350h-41q-113 0 -132 15t-19 110v534l16 43h-356l16 -47v-530z" />
    <glyph glyph-name="I" unicode="I" horiz-adv-x="440" 
d="M123 125v1350h43q113 1 132 -15t19 -110v-1350h-47q-111 0 -129 16t-18 109z" />
    <glyph glyph-name="J" unicode="J" horiz-adv-x="438" 
d="M123 1475h45q111 1 129 -15t18 -110v-1166q0 -141 -16 -249t-31 -136q-16 -29 -38 -65t-51 -56q-30 -18 -81 -44t-178 -25v162q104 0 141 69q23 41 36 77q26 72 26 390v1168z" />
    <glyph glyph-name="K" unicode="K" horiz-adv-x="950" 
d="M313 1350v-1225q0 -93 -19 -109t-128 -16h-43v1475h43q109 1 128 -15t19 -110zM856 1422q0 -24 -307 -679l360 -743h-61q-100 0 -138 19t-71 94l-297 630l344 732h31q59 -1 83 -3t40 -14t16 -36z" />
    <glyph glyph-name="L" unicode="L" horiz-adv-x="759" 
d="M569 182q111 0 130 -16t20 -111v-55h-596v1475h51q111 1 130 -15t20 -110v-1117l-19 -51h264z" />
    <glyph glyph-name="M" unicode="M" horiz-adv-x="1138" 
d="M285 1059v-934q1 -93 -19 -109t-129 -16h-45v1475h47q98 -1 123 -15t64 -98l223 -510h41l274 623h31q111 1 130 -15t19 -110v-1350h-45q-111 0 -129 15t-18 110l-2 932h-6l-152 -367l-55 -102h-135l-56 102l-155 369h-6z" />
    <glyph glyph-name="N" unicode="N" horiz-adv-x="892" 
d="M606 451v1024h45q111 1 129 -15t19 -110v-1350h-62q-102 0 -127 15t-53 100l-264 884h-10v-874q-1 -93 -19 -109t-129 -16h-43v1475h45q100 -1 123 -15t55 -100l281 -909h10z" />
    <glyph glyph-name="O" unicode="O" horiz-adv-x="997" 
d="M297 750q0 -294 45 -438t159 -144q115 0 159 144t45 436q0 569 -204 569t-204 -567zM102 744q0 406 88 580q88 175 310 175t309 -174q86 -174 86 -582q0 -409 -81 -583q-82 -174 -314 -174t-315 176t-83 582z" />
    <glyph glyph-name="P" unicode="P" horiz-adv-x="956" 
d="M457 850q100 0 155 33q35 20 41 108q2 29 2 91t-2 90q-7 92 -41 112q-55 33 -155 33h-158l16 -51v-369l-16 -47h158zM315 125q0 -93 -18 -109t-129 -16h-45v1477l332 22q205 0 282 -53q29 -20 49 -37t53 -105q15 -47 15 -175q0 -127 -2 -167t-13 -98t-36 -86
q-25 -29 -68 -57q-76 -53 -278 -53h-142v-543z" />
    <glyph glyph-name="Q" unicode="Q" horiz-adv-x="993" 
d="M297 751q0 -295 45 -439t160 -144q114 0 158 143t44 437t-42 431q-43 138 -161 138t-161 -136t-43 -430zM1180 -291q0 -66 -16 -77t-93 -11q-76 0 -387 45q-312 45 -366 45t-64 -2l-45 4v49q0 56 11 76t32 29l156 129q-170 35 -238 214t-68 562t85 555t315 172t313 -172
q84 -171 84 -535t-52 -539t-179 -235h2l-209 -149q61 -6 317 -37t300 -31t55 2l47 -4v-90z" />
    <glyph glyph-name="R" unicode="R" horiz-adv-x="962" 
d="M420 850q110 0 134 45t24 147t-1 130t-10 64q-8 36 -24 48q-43 33 -123 33h-121l18 -51v-369l-16 -47h119zM172 0h-49v1477l293 22q184 0 254 -53q27 -20 45 -36t30 -50l17 -57q14 -39 14 -103v-119q0 -295 -84 -368q-37 -33 -96 -39l326 -674h-68q-102 0 -139 19t-68 90
l-252 559h-96l18 -52l2 -491q0 -93 -18 -109t-129 -16z" />
    <glyph glyph-name="S" unicode="S" horiz-adv-x="892" 
d="M602 410q0 72 -35 125t-65 79t-107 95q-77 67 -109 97t-89 93q-104 115 -105 240q0 217 45 266q70 72 150 83t170 11l278 -59q-16 -117 -47 -137q-30 -26 -143 0l-78 14q-121 0 -148 -49q-16 -28 -19 -50t-3 -67q0 -84 207 -258q98 -78 153 -131t105 -129t49 -144
q0 -68 -2 -152t-23 -133q-50 -122 -118 -161q-104 -57 -250 -57q-82 0 -191 19t-145 24v174q359 -35 429 -6q36 14 54 33q17 20 27 64t10 116z" />
    <glyph glyph-name="T" unicode="T" horiz-adv-x="743" 
d="M702 1300h-249l18 -51v-1124q0 -93 -19 -109t-130 -16h-50v1249l15 51h-246v175h661v-175z" />
    <glyph glyph-name="U" unicode="U" horiz-adv-x="964" 
d="M664 614v861h51q109 1 128 -15t19 -110v-736q0 -315 -15 -369q-15 -53 -33 -103t-44 -72q-27 -22 -79 -52q-51 -32 -187 -32t-182 20t-72 34q-27 14 -47 46q-20 33 -34 53q-13 21 -21 71t-16 91q-7 41 -7 191v983h49q111 1 129 -15t19 -110v-801q0 -223 28 -302t139 -79
q43 0 73 9t49 40t31 57q22 50 22 340z" />
    <glyph glyph-name="V" unicode="V" horiz-adv-x="913" 
d="M748 1475q80 1 102 -9t22 -47t-315 -1419h-184l-332 1475h74q94 1 112 -15t39 -106l187 -1020h22l215 1141h58z" />
    <glyph glyph-name="W" unicode="W" horiz-adv-x="1306" 
d="M1118 1475q80 1 104 -9t24 -45t-255 -1421h-184l-133 698h-21l-137 -698h-182l-273 1475h99q94 1 113 -15t38 -106l121 -975h14l74 491l45 168h197l41 -168l76 -487h16l139 1092h84z" />
    <glyph glyph-name="X" unicode="X" horiz-adv-x="864" 
d="M135 0h-94l289 727l-271 748h97q82 -1 101 -15t50 -102l135 -467h33l164 584h41q82 -1 108 -9t25 -49q0 -20 -260 -688l270 -729h-90q-81 0 -105 20t-44 97l-127 434h-33l-139 -438q-33 -85 -51 -99t-99 -14z" />
    <glyph glyph-name="Y" unicode="Y" horiz-adv-x="837" 
d="M676 1475q74 -1 98 -9t23 -41q0 -33 -269 -718v-707h-45q-111 0 -130 15t-19 110v584l-293 766h80q88 -1 108 -15t54 -100l135 -412h31l174 527h53z" />
    <glyph glyph-name="Z" unicode="Z" horiz-adv-x="770" 
d="M555 182q109 0 128 -26t19 -156h-641v152l426 1148h-426q-1 129 15 151t108 22l525 2v-140l-437 -1153h283z" />
    <glyph glyph-name="bracketleft" unicode="[" horiz-adv-x="462" 
d="M418 1393h-154v-1368h17q102 1 119 -19t18 -139h-189q-102 0 -119 15t-18 108v1560h189q101 0 119 -19t18 -138z" />
    <glyph glyph-name="backslash" unicode="\" horiz-adv-x="815" 
d="M596 -383l-586 1858h205l588 -1858h-207z" />
    <glyph glyph-name="bracketright" unicode="]" horiz-adv-x="468" 
d="M201 1393h-156q0 119 17 138t120 19h191v-1560q1 -92 -17 -108t-120 -15h-191q0 119 17 138t120 20h19v1368z" />
    <glyph glyph-name="asciicircum" unicode="^" horiz-adv-x="841" 
d="M389 1499h62l325 -149v-181l-358 162l-355 -162v183z" />
    <glyph glyph-name="underscore" unicode="_" horiz-adv-x="1198" 
d="M92 166h1012v-168h-1012v168z" />
    <glyph glyph-name="grave" unicode="`" horiz-adv-x="436" 
d="M138 1499q24 0 44 -11t70 -65l154 -170l-115 -118l-271 270l56 55q38 39 62 39z" />
    <glyph glyph-name="a" unicode="a" horiz-adv-x="741" 
d="M285 160q2 0 207 78l-21 59v244l16 47q-84 -2 -147 -16t-64 -40l-2 -270q1 -102 11 -102zM223 922q-31 0 -47 14t-33 131l238 47q145 0 182 -22t53 -35q33 -29 33 -226v-831q-119 0 -149 12t-33 60l-170 -86q-57 0 -85 1t-56 17t-36 32q-28 51 -28 331v141q0 231 404 240
l-17 49v49l2 55q0 29 -6 31t-14 9q-7 7 -21 3t-32 -2l-111 -14q-43 -6 -74 -6z" />
    <glyph glyph-name="b" unicode="b" horiz-adv-x="827" 
d="M551 538q0 224 -19 310q-18 86 -96 92l-162 -39l19 -57v-549l-19 -64l160 -71q83 2 100 78t17 300zM113 0v1487q135 1 157 -15t23 -110v-289l119 41q131 0 175 -27t72 -48t47 -94t24 -157t5 -238q0 -156 -3 -222q-10 -217 -64 -267q-88 -76 -250 -75l-125 84
q-1 -50 -29 -60t-151 -10z" />
    <glyph glyph-name="c" unicode="c" horiz-adv-x="684" 
d="M274 555q0 -129 2 -183q6 -161 51 -194q25 -18 67 -18t78 7t79 18t72 16v-160q-19 -4 -97 -30q-78 -25 -128 -25q-166 2 -216 58q-23 26 -38 44t-34 107q-18 88 -18 231v254q0 139 16 224t33 107q18 21 41 46q54 59 217 57l232 -49q-17 -117 -33 -131t-47 -14t-74 6
l-78 14q-47 0 -73 -16q-42 -26 -50 -187q-2 -53 -2 -182z" />
    <glyph glyph-name="d" unicode="d" horiz-adv-x="825" 
d="M551 227l-21 66v549l19 57l-160 41q-78 -6 -96 -86q-19 -80 -19 -318t19 -298q23 -76 98 -78zM92 547q0 151 3 219t19 153q15 85 50 117q82 78 252 78l114 -41v402q137 1 160 -15t23 -110v-1350q-123 0 -152 10t-31 60l-124 -84q-162 0 -246 75q-55 51 -66 267
q-2 67 -2 219z" />
    <glyph glyph-name="e" unicode="e" horiz-adv-x="776" 
d="M404 940q-74 0 -96 -37t-21 -160l-17 -45h269l-21 45q-2 113 -21 155t-93 42zM412 160q139 0 282 20v-160q-190 -34 -270 -34q-215 1 -268 90q-23 36 -35 68q-27 71 -27 285v273q0 146 8 182q26 117 43 135q18 19 42 43t55 32q96 20 172 20q144 0 216 -84t70 -358l7 -140
l-447 -10l16 -47q0 -203 20 -259t116 -56z" />
    <glyph glyph-name="f" unicode="f" horiz-adv-x="536" 
d="M500 1100v-172h-205l20 -60v-1108q-1 -109 -23 -126t-159 -17l2 1251l19 60h-113v172h113l-19 51v102q0 31 6 77q7 46 13 60t28 36q22 24 41 28q98 20 158 21h123v-146q-139 -1 -163 -23t-24 -159l-20 -47h203z" />
    <glyph glyph-name="g" unicode="g" horiz-adv-x="872" 
d="M537 577q2 61 2 149q0 154 -27 181q-37 33 -116 33t-99 -46q-21 -46 -21 -190t24 -201t100 -57t106 34q29 34 31 97zM588 -105q0 54 -22 72t-95 19q-283 0 -331 28t-48 193q0 113 88 186q-47 43 -67 103t-21 170q0 256 12 288t28 64q15 32 38 45q24 12 66 32t174 19h370
q0 -98 -18 -131t-74 -37q37 -80 37 -241v-93q0 -100 -15 -165t-34 -84q-58 -56 -98 -68q-88 -19 -178 -19t-112 -12t-22 -45t10 -41q23 -18 201 -18q177 0 231 -43t54 -208t-60 -228t-237 -64h-123q-98 0 -115 19q-16 19 -16 135l252 14q79 0 102 28t23 82z" />
    <glyph glyph-name="h" unicode="h" horiz-adv-x="862" 
d="M305 123q0 -92 -22 -108q-23 -15 -160 -15v1475q135 1 158 -15t22 -110v-291l160 55q207 0 252 -113t45 -456v-545q-137 0 -161 15t-24 108v424q0 325 -41 368q-22 23 -59 25l-188 -55l18 -58v-704z" />
    <glyph glyph-name="i" unicode="i" horiz-adv-x="471" 
d="M145 115v985q137 0 160 -16t23 -107v-985q-137 0 -160 16t-23 107zM113 1330q0 50 37 85t86 35t86 -35q36 -35 36 -85t-36 -88t-86 -38q-49 0 -86 38t-37 88z" />
    <glyph glyph-name="j" unicode="j" horiz-adv-x="428" 
d="M297 977v-942q0 -219 -31 -273q-47 -86 -110 -108q-109 -37 -250 -37v158q131 0 168 53q14 23 25 44t14 163v1065q137 0 161 -16t23 -107zM80 1330q0 50 37 85t86 35t86 -35t37 -85t-37 -88t-86 -38t-86 38t-37 88z" />
    <glyph glyph-name="k" unicode="k" horiz-adv-x="901" 
d="M532 596l328 -596h-211l-313 596l289 504h200zM305 0h-29q-115 0 -134 15t-19 108v1352q137 1 160 -15t22 -110v-1350z" />
    <glyph glyph-name="l" unicode="l" horiz-adv-x="407" 
d="M305 1350v-1358q-137 0 -160 15t-22 108v1360q135 1 159 -15t23 -110z" />
    <glyph glyph-name="m" unicode="m" horiz-adv-x="1257" 
d="M725 0q-137 0 -160 15t-22 108l-2 502v80q0 47 1 71t-1 64q-2 39 -19 69q-16 31 -63 31l-183 -53l19 -60v-827q-137 0 -160 15t-22 108v977q113 0 143 -6t37 -37l153 57q90 0 138 -15t84 -59l188 74q121 0 163 -17t68 -34t47 -104q21 -88 21 -414v-545q-139 0 -162 15
t-22 108v424q0 283 -6 315q-10 59 -58 72q-16 4 -41 6l-159 -47l18 -57v-836z" />
    <glyph glyph-name="n" unicode="n" horiz-adv-x="849" 
d="M295 0q-137 0 -160 15t-22 108v977q119 0 149 -6t33 -37l151 57q125 0 164 -16q40 -16 60 -28t41 -60q36 -82 37 -465v-545q-137 0 -161 15t-24 108v424l2 180q0 82 -4 123q-8 86 -96 90l-189 -55l19 -58v-827z" />
    <glyph glyph-name="o" unicode="o" horiz-adv-x="817" 
d="M408 940q-92 0 -112 -75t-22 -258q0 -183 2 -237q6 -161 55 -193q28 -17 77 -17q92 0 112 78t21 262q0 184 -2 237q-6 154 -55 186q-27 17 -76 17zM92 545v127q0 247 37 310q13 25 31 52t41 37q23 11 63 27t139 16t159 -24t94 -53q69 -61 69 -443v-154q0 -257 -37 -318
q-14 -23 -32 -51t-41 -39t-63 -29q-40 -17 -122 -17t-139 8t-121 63q-32 25 -55 114q-23 90 -23 374z" />
    <glyph glyph-name="p" unicode="p" horiz-adv-x="849" 
d="M573 540q0 226 -18 310t-96 90l-172 -39l18 -55v-553l-22 -64l172 -69q82 2 100 78t18 302zM123 -260v1360q133 0 156 -6t22 -41l150 61q76 0 161 -24q31 -10 55 -37t39 -46t30 -86q22 -105 22 -253v-123q0 -295 -12 -341q-34 -125 -61 -146q-25 -21 -69 -47t-170 -25
l-143 71v-440q-135 0 -158 15q-22 16 -22 108z" />
    <glyph glyph-name="q" unicode="q" horiz-adv-x="839" 
d="M292 850q-18 -84 -18 -257t2 -226q6 -156 49 -188q24 -17 68 -19l172 69l-22 62v551l20 55l-176 43q-78 -6 -95 -90zM545 1100q137 0 160 -16t22 -107v-1360q-137 0 -160 15t-22 108v315l-144 -69q-215 0 -262 108t-47 451q0 147 2 213t18 152t48 120q80 84 237 84
l148 -61v47z" />
    <glyph glyph-name="r" unicode="r" horiz-adv-x="606" 
d="M297 0q-137 0 -161 15t-23 108v977q135 0 157 -8t23 -56l131 78q59 0 108 -12l33 -2q0 -116 -16 -138t-105 -22l-168 -57l21 -58v-825z" />
    <glyph glyph-name="s" unicode="s" horiz-adv-x="710" 
d="M317 160q59 0 77 10t34 27q14 17 14 145q0 49 -184 188q-70 51 -128 128t-58 145q0 69 2 101t17 80t44 71q80 59 232 59l239 -49q-16 -119 -32 -132t-47 -13q-32 0 -74 6l-80 14q-85 0 -101 -33t-16 -80t59 -100t132 -102t133 -122t59 -145q0 -72 -2 -108t-17 -96
q-14 -58 -44 -90t-88 -56q-103 -42 -329 -2q-58 10 -85 14v160q184 -20 243 -20z" />
    <glyph glyph-name="t" unicode="t" horiz-adv-x="583" 
d="M506 1100q0 -117 -22 -145t-126 -27h-59l18 -51v-406q-1 -174 13 -239t57 -72h156v-160l-166 -10q-102 0 -135 20t-51 34t-46 111q-12 48 -12 189v533l17 51h-109v172h109l-17 76v104q137 0 161 -13t23 -98l-16 -69h205z" />
    <glyph glyph-name="u" unicode="u" horiz-adv-x="841" 
d="M555 1100q137 0 161 -16t23 -107v-977q-121 0 -151 7t-33 48l-131 -69q-162 0 -252 80q-57 49 -66 270q-4 68 -4 219v545q137 0 160 -16t23 -107v-418q0 -241 11 -279t23 -67q20 -49 84 -53l172 71l-20 62v807z" />
    <glyph glyph-name="v" unicode="v" horiz-adv-x="747" 
d="M705 1040q-2 -16 -15 -73l-196 -967h-228l-225 1100q90 0 127 -9t50 -29t26 -79l137 -739h6l152 856q139 0 156 -21t10 -39z" />
    <glyph glyph-name="w" unicode="w" horiz-adv-x="1144" 
d="M1104 1054q0 -13 -12 -77l-191 -977h-227l-92 696l-93 -696h-229l-219 1100q139 0 165 -14t42 -103l123 -711h6l88 578l39 147h160l36 -149l93 -578h6l141 830q142 0 158 -23q6 -10 6 -23z" />
    <glyph glyph-name="x" unicode="x" horiz-adv-x="735" 
d="M629 1052q0 -32 -166 -477l231 -575h-190l-152 426h-16l-133 -426q-133 0 -148 12q-23 23 -8 51l199 531l-201 506q141 0 172 -14t59 -91l74 -254h19l104 359q82 0 119 -8t37 -40z" />
    <glyph glyph-name="y" unicode="y" horiz-adv-x="729" 
d="M82 -383v147q80 0 136 50t56 116q0 16 -2 27l-231 1143h80q107 0 116 -55q5 -27 11 -62l117 -737h30l125 854q108 0 138 -9t30 -57l-217 -1067q-31 -165 -75 -227t-91 -82q-106 -41 -223 -41z" />
    <glyph glyph-name="z" unicode="z" horiz-adv-x="739" 
d="M668 0h-596v143l352 785h-313q0 128 15 150t107 22h410v-146l-369 -782h246q112 0 130 -22t18 -150z" />
    <glyph glyph-name="braceleft" unicode="{" horiz-adv-x="548" 
d="M166 1550h188q102 0 120 -19t18 -138h-154v-359l-143 -315l143 -316v-378h16q102 1 120 -19t18 -139h-189q-102 0 -120 15q-17 15 -17 108v403l-135 293v62l135 296v506z" />
    <glyph glyph-name="bar" unicode="|" horiz-adv-x="380" 
d="M92 -260v1735q135 -1 163 -17t28 -108v-1706l-27 -27q-124 -1 -144 15t-20 108z" />
    <glyph glyph-name="braceright" unicode="}" horiz-adv-x="548" 
d="M381 -10q0 -92 -16 -108t-119 -15h-189q-1 119 17 138t121 20h14v378l141 316l-141 315v359h-152q-1 119 17 138t121 19h186v-506l137 -296v-62l-137 -293v-403z" />
    <glyph glyph-name="asciitilde" unicode="~" horiz-adv-x="765" 
d="M678 664q0 -70 -18 -81t-130 -12l-331 19q-35 0 -49 -4l-68 4v76q0 70 18 81t129 11l330 -19q37 0 51 4l68 -4v-75z" />
    <glyph glyph-name="uni00A0" unicode="&#xa0;" horiz-adv-x="389" 
 />
    <glyph glyph-name="exclamdown" unicode="&#xa1;" horiz-adv-x="329" 
d="M262 776l-18 -975q-2 -90 -32 -107t-169 -18l39 996q2 78 24 91q23 13 156 13zM297 1001q0 -51 -37 -88t-87 -37t-87 38q-37 36 -37 87t37 87t87 36t87 -36t37 -87z" />
    <glyph glyph-name="cent" unicode="&#xa2;" horiz-adv-x="649" 
d="M410 -229q-117 0 -137 14q-19 14 -19 104v103q-113 16 -152 84q-25 39 -37 74q-28 75 -28 296q0 220 2 337t21 161q18 45 42 84q41 63 152 80v180q117 0 136 -15t20 -104v-59l170 -10q0 -111 -16 -129t-109 -19h-115q-92 0 -113 -76q-20 -78 -20 -266t2 -243t14 -118
t40 -82t90 -19t227 20v-145q-10 -3 -70 -17t-100 -16v-219z" />
    <glyph glyph-name="sterling" unicode="&#xa3;" horiz-adv-x="831" 
d="M561 410q-78 0 -110 2l8 -41v-166l-13 -39h228q104 0 122 -14t19 -103v-51h-526v389l10 39q-35 2 -74 2t-67 -4l-60 4v70q0 68 20 78t156 10h25l-10 43v520q125 0 147 -15t23 -104v-420l-10 -43h10q33 -2 79 -2t78 4l60 -2v-71q-1 -66 -19 -76t-96 -10z" />
    <glyph glyph-name="currency" unicode="&#xa4;" horiz-adv-x="1021" 
d="M779 399q-32 0 -91 60l-53 53q-65 -33 -133 -33t-133 31l-150 -131q-74 74 -74 99q1 25 9 35q8 11 10 14t8 11t10 10q4 3 25 23l49 50q-41 71 -41 147t37 133l-129 148q73 73 105 73t89 -59l50 -53q59 34 134 34t144 -40l150 131q73 -76 73 -106t-61 -89l-49 -47
q69 -135 -8 -270l131 -150q-70 -74 -102 -74zM500 629q56 0 97 39q40 39 40 93t-41 94q-40 40 -96 40t-96 -40t-40 -95t40 -93t96 -38z" />
    <glyph glyph-name="yen" unicode="&#xa5;" horiz-adv-x="843" 
d="M678 174q0 -62 -18 -74t-93 -12q-74 0 -104 2l8 -24v-66h-39q-100 0 -117 10q-16 10 -16 68l8 24l-98 2q-39 0 -57 -2l-60 4v70q0 66 18 77t93 11q74 0 104 -2l-8 21v55l8 18l-98 2q-39 0 -57 -2l-60 4v70q0 66 18 77t93 11q74 0 104 -2v35l-289 549h76q72 0 96 -16
t60 -89l133 -286l178 391h47q49 0 68 -2q47 -4 47 -49q0 -20 -260 -510v-41q49 -4 84 -4t69 8l62 -4v-70q0 -62 -18 -74t-93 -12q-74 0 -104 2l8 -63v-17l-8 -20l78 -2q39 0 75 6l62 -4v-70z" />
    <glyph glyph-name="brokenbar" unicode="&#xa6;" horiz-adv-x="380" 
d="M283 -377h-29q-121 -1 -141 15t-21 110v733q135 0 163 -16t28 -107v-735zM283 616h-29q-121 0 -141 16t-21 107v736q135 -1 163 -17t28 -108v-734z" />
    <glyph glyph-name="section" unicode="&#xa7;" horiz-adv-x="706" 
d="M217 868q0 -82 193 -231q12 -11 42 -31t44 -33v105q0 47 -115 141q-24 24 -84 74l-72 57q-8 -35 -8 -82zM322 160q64 0 86 12q43 23 45 170q0 51 -191 199q-70 53 -129 132t-59 154v23q0 116 15 146t34 46q-47 72 -47 140t2 100t17 75q15 44 44 64q76 51 232 52l239 -50
q-16 -121 -31 -135t-44 -14t-78 10l-80 16q-80 0 -98 -24q-19 -24 -19 -68q0 -45 40 -88t95 -88t113 -94q135 -119 135 -225q0 -178 -35 -246q31 -61 31 -123t-2 -98q-2 -37 -16 -95t-43 -90q-78 -76 -230 -75q-74 0 -160 15t-114 19v160q184 -20 248 -20z" />
    <glyph glyph-name="dieresis" unicode="&#xa8;" horiz-adv-x="761" 
d="M434 1330q0 50 37 85t87 35t87 -35t37 -85t-37 -88t-86 -38t-87 38t-38 88zM80 1330q0 50 37 85t86 35t86 -35t37 -85t-37 -88t-85 -38t-86 38t-38 88z" />
    <glyph glyph-name="copyright" unicode="&#xa9;" horiz-adv-x="1290" 
d="M231 601q0 -181 119 -307t295 -126t295 126t119 307t-119 307t-295 126t-295 -126t-119 -307zM63 600q0 252 166 427t415 175t416 -175t167 -427t-167 -426t-416 -174t-415 174t-166 426zM631 786q-31 0 -38 -36t-7 -140t7 -140t43 -36t159 21v-136q-133 -27 -177 -27
q-84 1 -129 49q-45 47 -45 268q0 220 39 259q51 51 148 52l162 -9q1 -94 -11 -109t-75 -16h-76z" />
    <glyph glyph-name="ordfeminine" unicode="&#xaa;" horiz-adv-x="563" 
d="M88 1044q0 88 64 126t172 44v64q0 33 -14 41t-38 8h-86q-76 0 -89 16t-13 111l184 23q74 -1 117 -13q70 -20 83 -106q3 -27 3 -88v-514q-129 0 -145 69l-64 -80q-131 0 -147 37q-25 46 -26 110t-1 152zM223 889q4 0 99 47v154q-37 0 -71 -16t-34 -27l2 -136q0 -22 4 -22z
" />
    <glyph glyph-name="guillemotleft" unicode="&#xab;" horiz-adv-x="724" 
d="M338 584v61l149 326h179l-162 -357l162 -356h-181zM59 584v61l150 326h180l-164 -357l164 -356h-182z" />
    <glyph glyph-name="logicalnot" unicode="&#xac;" horiz-adv-x="696" 
d="M446 426v154h-421v172h579v-189q0 -102 -19 -120q-20 -17 -139 -17z" />
    <glyph glyph-name="registered" unicode="&#xae;" horiz-adv-x="1290" 
d="M231 601q0 -181 119 -307t295 -126t295 126t119 307t-119 307t-295 126t-295 -126t-119 -307zM63 600q0 252 166 427t415 175t416 -175t167 -427t-167 -426t-416 -174t-415 174t-166 426zM702 735q0 43 -8 50t-57 8l-16 4v-127l16 6q47 0 56 8t9 51zM625 414
q1 -64 -17 -74t-127 -10v583l158 9q76 0 117 -6t59 -32q17 -24 21 -48t4 -88q0 -66 -3 -95t-25 -57t-71 -37l142 -229q-104 0 -134 11t-53 50l-71 113v-90z" />
    <glyph glyph-name="macron" unicode="&#xaf;" horiz-adv-x="667" 
d="M92 1499h481v-168h-481v168z" />
    <glyph glyph-name="degree" unicode="&#xb0;" horiz-adv-x="708" 
d="M217 1223q0 -51 35 -83q34 -32 102 -32t102 32t33 83q0 113 -135 112q-70 -1 -104 -31t-33 -81zM63 1223q1 115 87 195t204 81q118 0 205 -81q86 -82 86 -196t-86 -196t-205 -82t-205 82t-86 197z" />
    <glyph glyph-name="plusminus" unicode="&#xb1;" horiz-adv-x="606" 
d="M63 563h480v-170h-480v170zM385 645h-168v148l12 30h-166v168h166l-12 31v145h168v-145l-12 -31h170v-168h-170l12 -26v-152z" />
    <glyph glyph-name="twosuperior" unicode="&#xb2;" horiz-adv-x="540" 
d="M240 1051v-84h198v-119h-325v209q0 43 29 84q30 41 67 67q96 74 96 114t-14 49t-39 9h-62q-59 0 -69 14t-10 97l145 10q118 -2 148 -44t30 -138q0 -47 -31 -90t-67 -70q-96 -67 -96 -108z" />
    <glyph glyph-name="threesuperior" unicode="&#xb3;" horiz-adv-x="528" 
d="M125 1487h315l-110 -193q57 -20 79 -64q21 -44 21 -173t-29 -178t-131 -50q-14 0 -145 17v112q117 -10 141 -10t31 16q6 16 6 115q0 100 -10 115q-8 10 -25 10h-94l80 164h-129v119z" />
    <glyph glyph-name="acute" unicode="&#xb4;" horiz-adv-x="436" 
d="M296 1499q24 0 81 -57l39 -37l-271 -270l-114 118l149 170q52 53 72 65t44 11z" />
    <glyph glyph-name="mu" unicode="&#xb5;" horiz-adv-x="770" 
d="M543 557v424q0 92 23 108q24 15 161 15v-674q0 -143 -9 -186q-27 -129 -44 -150q-16 -20 -40 -46q-55 -60 -222 -58l-140 55v-291q0 -94 -22 -109t-158 -16v1475q137 0 160 -15t22 -108v-721l-12 -37l164 -59q80 4 98 88q19 84 19 305z" />
    <glyph glyph-name="paragraph" unicode="&#xb6;" horiz-adv-x="1038" 
d="M49 1190q0 112 85 196t200 89l647 -2v-193h-209l10 -45v-1235h-190v1235l10 45h-123l10 -45v-1235h-190v901q-104 12 -177 94t-73 195z" />
    <glyph glyph-name="periodcentered" unicode="&#xb7;" horiz-adv-x="405" 
d="M63 612q0 56 41 96q42 40 98 40t98 -40t42 -96t-43 -99q-43 -42 -97 -42t-97 42q-42 42 -42 99z" />
    <glyph glyph-name="cedilla" unicode="&#xb8;" horiz-adv-x="434" 
d="M31 -211h170v211h147v-240q0 -78 -19 -98t-98 -20h-67q-100 0 -117 18q-16 18 -16 129z" />
    <glyph glyph-name="onesuperior" unicode="&#xb9;" horiz-adv-x="434" 
d="M233 1489q59 0 69 -12t11 -88v-547h-129v520l-88 -23v125l78 25h59z" />
    <glyph glyph-name="ordmasculine" unicode="&#xba;" horiz-adv-x="630" 
d="M389 1135q0 213 -75 213q-74 0 -74 -213t75 -213q33 0 51 35q17 35 20 75t3 103zM111 1136q0 212 41 288q40 76 162 75q122 0 162 -76q40 -75 40 -287t-39 -292t-161 -80t-164 80q-41 80 -41 292z" />
    <glyph glyph-name="guillemotright" unicode="&#xbb;" horiz-adv-x="722" 
d="M387 645v-61l-147 -326h-181l162 356l-162 357h179zM664 645v-61l-146 -326h-180l162 356l-162 357h178z" />
    <glyph glyph-name="onequarter" unicode="&#xbc;" horiz-adv-x="653" 
d="M279 449h-21l-70 -193h105l-14 39v154zM422 256v-106h-60l15 -48v-102h-113v102l15 48h-261l236 491h123v-346l-15 -39h60zM82 819h434v-112h-434v112zM291 1489q59 0 69 -12t11 -88v-506h-129v479l-88 -23v125l77 25h60z" />
    <glyph glyph-name="onehalf" unicode="&#xbd;" horiz-adv-x="749" 
d="M102 819h435v-112h-435v112zM317 1489q59 0 69 -12t11 -88v-506h-129v479l-88 -23v125l78 25h59zM285 203v-84h198v-119h-325v209q0 43 29 84q30 41 67 67q96 74 96 114t-14 49t-39 9h-61q-60 0 -70 14t-10 97l145 10q117 -2 148 -44q31 -41 31 -113q-1 -113 -99 -185
q-96 -67 -96 -108z" />
    <glyph glyph-name="threequarters" unicode="&#xbe;" horiz-adv-x="643" 
d="M125 1487h315l-110 -193q60 -20 80 -56t20 -161t-27 -166t-133 -41q-14 0 -145 17v112q117 -10 145 -10t30 13q3 14 3 96t-4 94t-31 12h-94l80 164h-129v119zM279 449h-21l-70 -193h105l-14 39v154zM422 256v-106h-60l15 -48v-102h-113v102l15 48h-261l236 491h123v-346
l-15 -39h60zM61 819h437v-112h-437v112z" />
    <glyph glyph-name="questiondown" unicode="&#xbf;" horiz-adv-x="696" 
d="M567 725v-88q-2 -92 -51 -188t-107 -165q-59 -69 -107 -154t-48 -140t4 -79t21 -48q31 -47 151 -47h74q98 0 114 -20t17 -136l-213 -25q-148 1 -198 21t-76 32t-42 44q-16 31 -27 52t-16 126v80q0 96 49 191q48 95 105 161q156 178 166 295v88h184zM602 986
q0 -50 -37 -85t-86 -35t-86 35t-37 85t37 87t86 37t86 -37t37 -87z" />
    <glyph glyph-name="Agrave" unicode="&#xc0;" horiz-adv-x="925" 
d="M440 1102l-75 -400l-17 -34h211q-2 2 -10 19t-8 20l-80 395h-21zM817 0q-104 0 -126 16t-40 109l-69 346h-258l-84 -471h-47q-98 0 -125 11t-27 53t311 1411h197l336 -1475h-68zM309 1860q39 38 63 38t44 -11t69 -64l154 -170l-115 -119l-270 270z" />
    <glyph glyph-name="Aacute" unicode="&#xc1;" horiz-adv-x="925" 
d="M628 1898q24 0 81 -57l39 -37l-271 -270l-115 119l150 170q52 53 72 64t44 11zM440 1102l-75 -400l-17 -34h211q-2 2 -10 19t-8 20l-80 395h-21zM817 0q-104 0 -126 16t-40 109l-69 346h-258l-84 -471h-47q-98 0 -125 11t-27 53t311 1411h197l336 -1475h-68z" />
    <glyph glyph-name="Acircumflex" unicode="&#xc2;" horiz-adv-x="925" 
d="M440 1102l-75 -400l-17 -34h211q-2 2 -10 19t-8 20l-80 395h-21zM817 0q-104 0 -126 16t-40 109l-69 346h-258l-84 -471h-47q-98 0 -125 11t-27 53t311 1411h197l336 -1475h-68zM420 1898h69l267 -149v-184l-299 164l-299 -164v186z" />
    <glyph glyph-name="Atilde" unicode="&#xc3;" horiz-adv-x="925" 
d="M719 1747q-1 -72 -19 -83t-100 -11t-171 10t-136 10t-62 -4l-67 4v76q0 70 18 81t98 11t169 -9q88 -9 139 -9t65 2l66 -2v-76zM440 1102l-75 -400l-17 -34h211q-2 2 -10 19t-8 20l-80 395h-21zM817 0q-104 0 -126 16t-40 109l-69 346h-258l-84 -471h-47q-98 0 -125 11
t-27 53t311 1411h197l336 -1475h-68z" />
    <glyph glyph-name="Adieresis" unicode="&#xc4;" horiz-adv-x="925" 
d="M508 1730q0 50 37 85t87 35t87 -36q37 -34 37 -84t-37 -88t-86 -39q-49 0 -87 38q-38 39 -38 89zM399 1730q0 -50 -37 -88t-85 -39q-48 0 -86 38q-37 39 -37 89t36 85q37 35 86 35t86 -36q37 -34 37 -84zM440 1102l-75 -400l-17 -34h211q-2 2 -10 19t-8 20l-80 395h-21z
M817 0q-104 0 -126 16t-40 109l-69 346h-258l-84 -471h-47q-98 0 -125 11t-27 53t311 1411h197l336 -1475h-68z" />
    <glyph glyph-name="Aring" unicode="&#xc5;" horiz-adv-x="925" 
d="M440 1102l-75 -400l-17 -34h211q-2 2 -10 19t-8 20l-80 395h-21zM817 0q-104 0 -126 16t-40 109l-69 346h-258l-84 -471h-47q-98 0 -125 11t-27 53t311 1411h197l336 -1475h-68zM381 1699q0 -24 20 -44q45 -45 88 0q20 20 21 44q0 24 -20 42t-46 18q-25 0 -44 -18
t-19 -42zM250 1700q0 78 58 134t136 56t136 -56t57 -135q0 -79 -57 -135q-58 -56 -136 -56t-136 57t-58 135z" />
    <glyph glyph-name="AE" unicode="&#xc6;" horiz-adv-x="1300" 
d="M571 668v614h-57l-111 -614h168zM571 0v471h-217l-98 -471h-49q-96 0 -123 11t-27 53t11 77l301 1334h837v-193h-432l14 -39v-309l-12 -41h402v-199h-404l14 -39v-409l-16 -45h453v-201h-654zM403 668q-2 -4 -2 -11z" />
    <glyph glyph-name="Ccedilla" unicode="&#xc7;" horiz-adv-x="843" 
d="M555 -240q0 -78 -19 -98t-98 -20h-67q-100 0 -117 18q-16 18 -16 129h170v201q-115 14 -195 96q-49 53 -80 180t-31 484v137q0 147 18 270t41 162q63 108 118 135q90 45 196 45l285 -65q-16 -119 -62 -148q-26 -14 -70 -14t-106 12l-57 14q-57 0 -92 -36
q-54 -56 -67 -291q-3 -71 -3 -221t3 -222q4 -72 18 -162t49 -128q35 -37 94 -37t161 9t134 11v-198l-207 -33v-230z" />
    <glyph glyph-name="Egrave" unicode="&#xc8;" horiz-adv-x="827" 
d="M297 1860q39 38 63 38t44 -11t69 -64l154 -170l-115 -119l-270 270zM766 182v-182h-643v1475h622v-175h-440l19 -51v-313l-19 -51h416v-183h-414l17 -47v-422l-19 -51h461z" />
    <glyph glyph-name="Eacute" unicode="&#xc9;" horiz-adv-x="827" 
d="M581 1898q24 0 81 -57l38 -37l-270 -270l-115 119l150 170q53 53 73 64t43 11zM766 182v-182h-643v1475h622v-175h-440l19 -51v-313l-19 -51h416v-183h-414l17 -47v-422l-19 -51h461z" />
    <glyph glyph-name="Ecircumflex" unicode="&#xca;" horiz-adv-x="827" 
d="M410 1898h69l266 -149v-184l-299 164l-299 -164v186zM766 182v-182h-643v1475h622v-175h-440l19 -51v-313l-19 -51h416v-183h-414l17 -47v-422l-19 -51h461z" />
    <glyph glyph-name="Edieresis" unicode="&#xcb;" horiz-adv-x="827" 
d="M502 1730q0 50 37 85t87 35t87 -36q37 -34 37 -84t-37 -88t-86 -39q-49 0 -87 38q-38 39 -38 89zM147 1730q0 50 37 85t86 35t86 -36q37 -34 37 -84t-37 -88t-85 -39q-48 0 -86 38q-38 39 -38 89zM766 182v-182h-643v1475h622v-175h-440l19 -51v-313l-19 -51h416v-183
h-414l17 -47v-422l-19 -51h461z" />
    <glyph glyph-name="Igrave" unicode="&#xcc;" horiz-adv-x="440" 
d="M123 125v1350h43q113 1 132 -15t19 -110v-1350h-47q-111 0 -129 16t-18 109zM8 1860q39 38 63 38q25 0 45 -11t68 -64l154 -170l-115 -119l-270 270z" />
    <glyph glyph-name="Iacute" unicode="&#xcd;" horiz-adv-x="440" 
d="M408 1898q24 0 81 -57l39 -37l-270 -270l-115 119l150 170q53 53 73 64q18 11 42 11zM123 125v1350h43q113 1 132 -15t19 -110v-1350h-47q-111 0 -129 16t-18 109z" />
    <glyph glyph-name="Icircumflex" unicode="&#xce;" horiz-adv-x="440" 
d="M188 1898h70l266 -149v-184l-299 164l-299 -164v186zM123 125v1350h43q113 1 132 -15t19 -110v-1350h-47q-111 0 -129 16t-18 109z" />
    <glyph glyph-name="Idieresis" unicode="&#xcf;" horiz-adv-x="440" 
d="M526 1730q0 -50 -37 -88t-86 -39q-49 0 -87 38q-38 39 -38 89t37 85t87 35t87 -36q37 -34 37 -84zM-76 1730q0 50 37 85t86 35t86 -36q37 -34 37 -84t-37 -88t-85 -39q-48 0 -86 38q-38 39 -38 89zM123 125v1350h43q113 1 132 -15t19 -110v-1350h-47q-111 0 -129 16
t-18 109z" />
    <glyph glyph-name="Eth" unicode="&#xd0;" horiz-adv-x="927" 
d="M524 889v-170h-260l21 -45v-465l-21 -41h215q70 0 107 52t46 110q23 150 23 301v235q0 143 -14 236t-27 118q-14 26 -32 50q-33 47 -103 47h-215l21 -55v-326l-21 -47h260zM850 889v-139q0 -373 -31 -480q-43 -160 -104 -209q-96 -76 -236 -75l-387 14v1479l387 20
q106 0 197 -45q36 -18 64 -57t49 -75t41 -161t20 -272z" />
    <glyph glyph-name="Ntilde" unicode="&#xd1;" horiz-adv-x="892" 
d="M719 1747q-1 -72 -19 -83t-100 -11t-171 10t-136 10t-62 -4l-67 4v76q0 70 18 81t98 11t169 -9q88 -9 139 -9t65 2l66 -2v-76zM606 451v1024h45q111 1 129 -15t19 -110v-1350h-62q-102 0 -127 15t-53 100l-264 884h-10v-874q-1 -93 -19 -109t-129 -16h-43v1475h45
q100 -1 123 -15t55 -100l281 -909h10z" />
    <glyph glyph-name="Ograve" unicode="&#xd2;" horiz-adv-x="997" 
d="M339 1919q25 0 45 -11t69 -65l153 -170l-114 -119l-271 271l55 55q39 39 63 39zM297 750q0 -294 45 -438t159 -144q115 0 159 144t45 436q0 569 -204 569t-204 -567zM102 744q0 406 88 580q88 175 310 175t309 -174q86 -174 86 -582q0 -409 -81 -583q-82 -174 -314 -174
t-315 176t-83 582z" />
    <glyph glyph-name="Oacute" unicode="&#xd3;" horiz-adv-x="997" 
d="M644 1919q24 0 81 -57l39 -37l-270 -271l-115 119l149 170q52 53 72 65t44 11zM297 750q0 -294 45 -438t159 -144q115 0 159 144t45 436q0 569 -204 569t-204 -567zM102 744q0 406 88 580q88 175 310 175t309 -174q86 -174 86 -582q0 -409 -81 -583q-82 -174 -314 -174
t-315 176t-83 582z" />
    <glyph glyph-name="Ocircumflex" unicode="&#xd4;" horiz-adv-x="997" 
d="M479 1898h70l266 -149v-184l-299 164l-299 -164v186zM297 750q0 -294 45 -438t159 -144q115 0 159 144t45 436q0 569 -204 569t-204 -567zM102 744q0 406 88 580q88 175 310 175t309 -174q86 -174 86 -582q0 -409 -81 -583q-82 -174 -314 -174t-315 176t-83 582z" />
    <glyph glyph-name="Otilde" unicode="&#xd5;" horiz-adv-x="997" 
d="M297 750q0 -294 45 -438t159 -144q115 0 159 144t45 436q0 569 -204 569t-204 -567zM102 744q0 406 88 580q88 175 310 175t309 -174q86 -174 86 -582q0 -409 -81 -583q-82 -174 -314 -174t-315 176t-83 582zM782 1747q0 -70 -18 -82t-100 -12t-171 10t-137 10t-61 -4
l-68 4v76q1 70 19 81t129 11l289 -18q39 0 53 2l65 -2v-76z" />
    <glyph glyph-name="Odieresis" unicode="&#xd6;" horiz-adv-x="997" 
d="M553 1730q0 50 37 85t87 35t87 -36q37 -34 37 -84t-37 -88t-86 -39q-49 0 -87 38q-38 39 -38 89zM199 1730q0 50 37 85t86 35t86 -36q36 -34 36 -84t-36 -89q-37 -38 -85 -38t-86 38q-38 39 -38 89zM297 750q0 -294 45 -438t159 -144q115 0 159 144t45 436
q0 569 -204 569t-204 -567zM102 744q0 406 88 580q88 175 310 175t309 -174q86 -174 86 -582q0 -409 -81 -583q-82 -174 -314 -174t-315 176t-83 582z" />
    <glyph glyph-name="multiply" unicode="&#xd7;" horiz-adv-x="575" 
d="M420 631l98 -99l-117 -118l-96 96l-29 43l-131 -131l-106 106l131 134l-43 28l-94 94l117 117l94 -94l28 -45l134 135l108 -109l-135 -133z" />
    <glyph glyph-name="Oslash" unicode="&#xd8;" horiz-adv-x="960" 
d="M293 746q0 -298 42 -443q43 -145 151 -145t149 144t41 442t-42 440t-148 143q-106 0 -150 -141q-43 -142 -43 -440zM111 734q0 425 75 595q76 170 299 170q43 0 78 -8l60 145h198l-94 -231q77 -80 105 -236t28 -419q0 -414 -77 -589t-298 -175q-76 0 -141 26l-47 -110
h-197l99 239q-88 168 -88 593z" />
    <glyph glyph-name="Ugrave" unicode="&#xd9;" horiz-adv-x="964" 
d="M303 1860q39 38 63 38t44 -11t69 -64l154 -170l-115 -119l-270 270zM664 614v861h51q109 1 128 -15t19 -110v-736q0 -315 -15 -369q-15 -53 -33 -103t-44 -72q-27 -22 -79 -52q-51 -32 -187 -32t-182 20t-72 34q-27 14 -47 46q-20 33 -34 53q-13 21 -21 71t-16 91
q-7 41 -7 191v983h49q111 1 129 -15t19 -110v-801q0 -223 28 -302t139 -79q43 0 73 9t49 40t31 57q22 50 22 340z" />
    <glyph glyph-name="Uacute" unicode="&#xda;" horiz-adv-x="964" 
d="M656 1898q24 0 81 -57l39 -37l-270 -270l-115 119l150 170q53 53 72 64t43 11zM664 614v861h51q109 1 128 -15t19 -110v-736q0 -315 -15 -369q-15 -53 -33 -103t-44 -72q-27 -22 -79 -52q-51 -32 -187 -32t-182 20t-72 34q-27 14 -47 46q-20 33 -34 53q-13 21 -21 71
t-16 91q-7 41 -7 191v983h49q111 1 129 -15t19 -110v-801q0 -223 28 -302t139 -79q43 0 73 9t49 40t31 57q22 50 22 340z" />
    <glyph glyph-name="Ucircumflex" unicode="&#xdb;" horiz-adv-x="964" 
d="M664 614v861h51q109 1 128 -15t19 -110v-736q0 -315 -15 -369q-15 -53 -33 -103t-44 -72q-27 -22 -79 -52q-51 -32 -187 -32t-182 20t-72 34q-27 14 -47 46q-20 33 -34 53q-13 21 -21 71t-16 91q-7 41 -7 191v983h49q111 1 129 -15t19 -110v-801q0 -223 28 -302t139 -79
q43 0 73 9t49 40t31 57q22 50 22 340zM453 1898h69l266 -149v-184l-299 164l-299 -164v186z" />
    <glyph glyph-name="Udieresis" unicode="&#xdc;" horiz-adv-x="964" 
d="M545 1730q0 50 37 85t87 35t87 -36q37 -34 37 -84t-37 -88t-86 -39q-49 0 -87 38q-38 39 -38 89zM190 1730q0 50 37 85t86 35t86 -36q37 -34 37 -84t-37 -88t-85 -39q-48 0 -86 38q-38 39 -38 89zM664 614v861h51q109 1 128 -15t19 -110v-736q0 -315 -15 -369
q-15 -53 -33 -103t-44 -72q-27 -22 -79 -52q-51 -32 -187 -32t-182 20t-72 34q-27 14 -47 46q-20 33 -34 53q-13 21 -21 71t-16 91q-7 41 -7 191v983h49q111 1 129 -15t19 -110v-801q0 -223 28 -302t139 -79q43 0 73 9t49 40t31 57q22 50 22 340z" />
    <glyph glyph-name="Yacute" unicode="&#xdd;" horiz-adv-x="837" 
d="M676 1475q74 -1 98 -9t23 -41q0 -33 -269 -718v-707h-45q-111 0 -130 15t-19 110v584l-293 766h80q88 -1 108 -15t54 -100l135 -412h31l174 527h53zM624 1898q24 0 81 -57l38 -37l-270 -270l-115 119l150 170q52 53 72 64t44 11z" />
    <glyph glyph-name="Thorn" unicode="&#xde;" horiz-adv-x="763" 
d="M551 740q0 179 -24 255t-95 78l-168 -41l15 -35v-718l-17 -48l166 -71q63 4 88 69q25 72 29 157t5 130t1 224zM92 -264v1644q0 94 24 110t160 17v-301l148 41q162 0 246 -92q33 -35 48 -126t17 -159t2 -192t-1 -174q-1 -49 -4 -127t-12 -117q-10 -39 -24 -93t-37 -80
t-55 -54q-57 -47 -182 -47l-146 71v-448q-136 -1 -160 15t-24 112z" />
    <glyph glyph-name="germandbls" unicode="&#xdf;" horiz-adv-x="966" 
d="M614 160q92 0 93 106v76q-1 31 -59 83t-127 104t-127 128t-58 147q0 134 45 212q51 96 233 96q12 0 15 23q2 23 2 133q0 41 -109 41h-92q-115 -1 -133 -21t-18 -145l-3 -998q0 -109 -24 -127t-160 -18l2 1143v102q0 98 12 125q32 72 70 81q20 5 66 14t188 10h102
q168 0 242 -95q31 -39 31 -90q0 -230 -25 -290t-145 -60q-82 0 -98 -33q-17 -33 -17 -88t135 -153q57 -41 113 -86q56 -46 95 -104q40 -58 40 -124t-2 -102t-17 -96q-15 -58 -44 -90q-103 -112 -417 -58q-58 10 -85 14v160q184 -20 276 -20z" />
    <glyph glyph-name="agrave" unicode="&#xe0;" horiz-adv-x="741" 
d="M285 160q2 0 207 78l-21 59v244l16 47q-84 -2 -147 -16t-64 -40l-2 -270q1 -102 11 -102zM223 922q-31 0 -47 14t-33 131l238 47q145 0 182 -22t53 -35q33 -29 33 -226v-831q-119 0 -149 12t-33 60l-170 -86q-57 0 -85 1t-56 17t-36 32q-28 51 -28 331v141q0 231 404 240
l-17 49v49l2 55q0 29 -6 31t-14 9q-7 7 -21 3t-32 -2l-111 -14q-43 -6 -74 -6zM314 1591q24 0 44 -11t70 -64l154 -170l-115 -119l-270 270l55 55q38 39 62 39z" />
    <glyph glyph-name="aacute" unicode="&#xe1;" horiz-adv-x="741" 
d="M285 160q2 0 207 78l-21 59v244l16 47q-84 -2 -147 -16t-64 -40l-2 -270q1 -102 11 -102zM223 922q-31 0 -47 14t-33 131l238 47q145 0 182 -22t53 -35q33 -29 33 -226v-831q-119 0 -149 12t-33 60l-170 -86q-57 0 -85 1t-56 17t-36 32q-28 51 -28 331v141q0 231 404 240
l-17 49v49l2 55q0 29 -6 31t-14 9q-7 7 -21 3t-32 -2l-111 -14q-43 -6 -74 -6zM501 1591q24 0 81 -57l39 -37l-271 -270l-114 119l149 170q53 53 73 64t43 11z" />
    <glyph glyph-name="acircumflex" unicode="&#xe2;" horiz-adv-x="741" 
d="M285 160q2 0 207 78l-21 59v244l16 47q-84 -2 -147 -16t-64 -40l-2 -270q1 -102 11 -102zM223 922q-31 0 -47 14t-33 131l238 47q145 0 182 -22t53 -35q33 -29 33 -226v-831q-119 0 -149 12t-33 60l-170 -86q-57 0 -85 1t-56 17t-36 32q-28 51 -28 331v141q0 231 404 240
l-17 49v49l2 55q0 29 -6 31t-14 9q-7 7 -21 3t-32 -2l-111 -14q-43 -6 -74 -6zM348 1591h70l266 -149v-185l-299 164l-299 -164v187z" />
    <glyph glyph-name="atilde" unicode="&#xe3;" horiz-adv-x="741" 
d="M659 1372q0 -70 -18 -82t-100 -12t-171 10q-88 10 -136 10t-62 -4l-68 4v76q0 70 18 81t130 11l289 -18q39 0 53 2l65 -2v-76zM285 160q2 0 207 78l-21 59v244l16 47q-84 -2 -147 -16t-64 -40l-2 -270q1 -102 11 -102zM223 922q-31 0 -47 14t-33 131l238 47
q145 0 182 -22t53 -35q33 -29 33 -226v-831q-119 0 -149 12t-33 60l-170 -86q-57 0 -85 1t-56 17t-36 32q-28 51 -28 331v141q0 231 404 240l-17 49v49l2 55q0 29 -6 31t-14 9q-7 7 -21 3t-32 -2l-111 -14q-43 -6 -74 -6z" />
    <glyph glyph-name="adieresis" unicode="&#xe4;" horiz-adv-x="741" 
d="M285 160q2 0 207 78l-21 59v244l16 47q-84 -2 -147 -16t-64 -40l-2 -270q1 -102 11 -102zM223 922q-31 0 -47 14t-33 131l238 47q145 0 182 -22t53 -35q33 -29 33 -226v-831q-119 0 -149 12t-33 60l-170 -86q-57 0 -85 1t-56 17t-36 32q-28 51 -28 331v141q0 231 404 240
l-17 49v49l2 55q0 29 -6 31t-14 9q-7 7 -21 3t-32 -2l-111 -14q-43 -6 -74 -6zM444 1379q0 50 37 85t87 35t87 -35t37 -85t-37 -88t-86 -38t-87 38t-38 88zM90 1379q0 50 37 85t86 35t86 -35t37 -85t-37 -88t-85 -38t-86 38t-38 88z" />
    <glyph glyph-name="aring" unicode="&#xe5;" horiz-adv-x="741" 
d="M285 160q2 0 207 78l-21 59v244l16 47q-84 -2 -147 -16t-64 -40l-2 -270q1 -102 11 -102zM223 922q-31 0 -47 14t-33 131l238 47q145 0 182 -22t53 -35q33 -29 33 -226v-831q-119 0 -149 12t-33 60l-170 -86q-57 0 -85 1t-56 17t-36 32q-28 51 -28 331v141q0 231 404 240
l-17 49v49l2 55q0 29 -6 31t-14 9q-7 7 -21 3t-32 -2l-111 -14q-43 -6 -74 -6zM324 1365q0 -24 20 -44q45 -45 88 0q20 20 21 44q-1 24 -21 42t-45 18t-44 -18t-19 -42zM193 1366q0 78 58 134t136 56t135 -56q58 -56 58 -135t-58 -135t-135 -56q-78 0 -136 57t-58 135z" />
    <glyph glyph-name="ae" unicode="&#xe6;" horiz-adv-x="1179" 
d="M776 160q56 0 154 9t127 11v-160q-35 -4 -127 -20t-154 -14q-199 0 -258 114l-231 -114q-102 0 -133 28t-43 48q-27 48 -27 319v86q0 231 375 240v139q0 76 -37 88q-20 6 -51 6l-86 -12q-43 -6 -74 -6t-47 14t-33 131l238 47q145 0 206 -49q78 49 201 49q172 0 219 -82
q17 -35 33 -73t16 -287v-140l-413 -10l12 -37q0 -199 23 -262t110 -63zM461 238l-2 290q-195 -4 -195 -47l-2 -219q0 -90 12 -102zM776 940q-80 0 -102 -45t-21 -164l-10 -33h227l-10 33q0 117 -15 163q-16 46 -69 46z" />
    <glyph glyph-name="ccedilla" unicode="&#xe7;" horiz-adv-x="684" 
d="M274 555q0 -129 2 -183q6 -161 51 -194q25 -18 67 -18t78 7t79 18t72 16v-160q-27 -5 -83 -25t-87 -24v-232q1 -78 -19 -98t-98 -20h-68q-100 0 -116 18t-17 129h170v205q-78 10 -135 59q-76 72 -78 396v231q0 139 16 224t33 107q18 21 41 46q54 59 217 57l232 -49
q-17 -117 -33 -131t-47 -14t-74 6l-78 14q-47 0 -73 -16q-42 -26 -50 -187q-2 -53 -2 -182z" />
    <glyph glyph-name="egrave" unicode="&#xe8;" horiz-adv-x="755" 
d="M333 1579q25 0 45 -11t68 -65l154 -170l-115 -119l-270 271l55 55q39 39 63 39zM404 940q-74 0 -96 -37t-21 -160l-17 -45h269l-21 45q-2 113 -21 155t-93 42zM412 160q139 0 282 20v-160q-190 -34 -270 -34q-215 1 -268 90q-23 36 -35 68q-27 71 -27 285v273
q0 146 8 182q26 117 43 135q18 19 42 43t55 32q96 20 172 20q144 0 216 -84t70 -358l7 -140l-447 -10l16 -47q0 -203 20 -259t116 -56z" />
    <glyph glyph-name="eacute" unicode="&#xe9;" horiz-adv-x="755" 
d="M585 1583q24 0 81 -57l39 -37l-271 -270l-115 118l150 170q53 53 73 65t43 11zM404 940q-74 0 -96 -37t-21 -160l-17 -45h269l-21 45q-2 113 -21 155t-93 42zM412 160q139 0 282 20v-160q-190 -34 -270 -34q-215 1 -268 90q-23 36 -35 68q-27 71 -27 285v273q0 146 8 182
q26 117 43 135q18 19 42 43t55 32q96 20 172 20q144 0 216 -84t70 -358l7 -140l-447 -10l16 -47q0 -203 20 -259t116 -56z" />
    <glyph glyph-name="ecircumflex" unicode="&#xea;" horiz-adv-x="755" 
d="M410 1575h69l266 -150v-184l-299 164l-299 -164v186zM404 940q-74 0 -96 -37t-21 -160l-17 -45h269l-21 45q-2 113 -21 155t-93 42zM412 160q139 0 282 20v-160q-190 -34 -270 -34q-215 1 -268 90q-23 36 -35 68q-27 71 -27 285v273q0 146 8 182q26 117 43 135
q18 19 42 43t55 32q96 20 172 20q144 0 216 -84t70 -358l7 -140l-447 -10l16 -47q0 -203 20 -259t116 -56z" />
    <glyph glyph-name="edieresis" unicode="&#xeb;" horiz-adv-x="755" 
d="M617 1475q49 0 87 -35t38 -85t-38 -88q-36 -38 -86 -38t-87 38q-38 38 -37 88q0 50 36 85q37 35 87 35zM139 1355q0 50 37 85t86 35t86 -35t37 -85t-37 -88t-85 -38t-86 38t-38 88zM404 940q-74 0 -96 -37t-21 -160l-17 -45h269l-21 45q-2 113 -21 155t-93 42zM412 160
q139 0 282 20v-160q-190 -34 -270 -34q-215 1 -268 90q-23 36 -35 68q-27 71 -27 285v273q0 146 8 182q26 117 43 135q18 19 42 43t55 32q96 20 172 20q144 0 216 -84t70 -358l7 -140l-447 -10l16 -47q0 -203 20 -259t116 -56z" />
    <glyph glyph-name="igrave" unicode="&#xec;" horiz-adv-x="442" 
d="M114 1591q24 0 44 -11t69 -64l154 -170l-115 -119l-270 270l55 55q39 39 63 39zM117 115v985q137 0 159 -16t23 -107v-985q-137 0 -160 15q-22 16 -22 108z" />
    <glyph glyph-name="iacute" unicode="&#xed;" horiz-adv-x="397" 
d="M286 1587q24 0 81 -57l39 -37l-271 -270l-115 118l150 170q52 53 72 65t44 11zM92 115v985q137 0 160 -16t22 -107v-985q-138 0 -160 16t-22 107z" />
    <glyph glyph-name="icircumflex" unicode="&#xee;" horiz-adv-x="663" 
d="M299 1569h70l266 -150v-184l-299 164l-299 -164v186zM238 115v985q138 0 160 -16t22 -107v-985q-137 0 -160 15q-22 16 -22 108z" />
    <glyph glyph-name="idieresis" unicode="&#xef;" horiz-adv-x="677" 
d="M352 1367q0 50 37 85t87 35t87 -35t37 -85t-37 -88t-86 -38t-87 38t-38 88zM-2 1367q0 50 37 85t86 35t86 -35t37 -85t-37 -88t-85 -38t-86 38t-38 88zM215 115v985q137 0 160 -16t22 -107v-985q-137 0 -159 16t-23 107z" />
    <glyph glyph-name="eth" unicode="&#xf0;" horiz-adv-x="765" 
d="M291 1294v181q125 0 192 -45q37 -25 67 -51t64 -99t54 -201t20 -501q0 -374 -47 -476t-272 -102q-111 0 -148 12t-59 20t-40 32q-17 22 -29 37t-26 91q-14 75 -14 205v115q0 328 46 414t276 86l104 -47q-16 173 -58 251t-130 78zM244 503q0 -215 18 -273t110 -58t108 66
q17 66 18 192v174l-2 184l-129 52q-83 -3 -103 -62t-20 -275z" />
    <glyph glyph-name="ntilde" unicode="&#xf1;" horiz-adv-x="849" 
d="M295 0q-137 0 -160 15t-22 108v977q119 0 149 -6t33 -37l151 57q125 0 164 -16q40 -16 60 -28t41 -60q36 -82 37 -465v-545q-137 0 -161 15t-24 108v424l2 180q0 82 -4 123q-8 86 -96 90l-189 -55l19 -58v-827zM727 1372q0 -70 -18 -82q-19 -12 -101 -12t-171 10t-136 10
t-61 -4l-68 4v76q0 70 18 81t129 11l289 -18q39 0 54 2l65 -2v-76z" />
    <glyph glyph-name="ograve" unicode="&#xf2;" horiz-adv-x="817" 
d="M333 1591q25 0 45 -11t68 -64l154 -170l-115 -119l-270 270l55 55q39 39 63 39zM408 940q-92 0 -112 -75t-22 -258q0 -183 2 -237q6 -161 55 -193q28 -17 77 -17q92 0 112 78t21 262q0 184 -2 237q-6 154 -55 186q-27 17 -76 17zM92 545v127q0 247 37 310q13 25 31 52
t41 37q23 11 63 27t139 16t159 -24t94 -53q69 -61 69 -443v-154q0 -257 -37 -318q-14 -23 -32 -51t-41 -39t-63 -29q-40 -17 -122 -17t-139 8t-121 63q-32 25 -55 114q-23 90 -23 374z" />
    <glyph glyph-name="oacute" unicode="&#xf3;" horiz-adv-x="817" 
d="M599 1583q24 0 81 -57l39 -37l-270 -270l-115 118l149 170q53 53 73 65t43 11zM408 940q-92 0 -112 -75t-22 -258q0 -183 2 -237q6 -161 55 -193q28 -17 77 -17q92 0 112 78t21 262q0 184 -2 237q-6 154 -55 186q-27 17 -76 17zM92 545v127q0 247 37 310q13 25 31 52
t41 37q23 11 63 27t139 16t159 -24t94 -53q69 -61 69 -443v-154q0 -257 -37 -318q-14 -23 -32 -51t-41 -39t-63 -29q-40 -17 -122 -17t-139 8t-121 63q-32 25 -55 114q-23 90 -23 374z" />
    <glyph glyph-name="ocircumflex" unicode="&#xf4;" horiz-adv-x="817" 
d="M408 940q-92 0 -112 -75t-22 -258q0 -183 2 -237q6 -161 55 -193q28 -17 77 -17q92 0 112 78t21 262q0 184 -2 237q-6 154 -55 186q-27 17 -76 17zM92 545v127q0 247 37 310q13 25 31 52t41 37q23 11 63 27t139 16t159 -24t94 -53q69 -61 69 -443v-154q0 -257 -37 -318
q-14 -23 -32 -51t-41 -39t-63 -29q-40 -17 -122 -17t-139 8t-121 63q-32 25 -55 114q-23 90 -23 374zM371 1591h69l267 -149v-185l-299 164l-299 -164v187z" />
    <glyph glyph-name="otilde" unicode="&#xf5;" horiz-adv-x="817" 
d="M698 1372q0 -70 -18 -82t-100 -12t-171 10t-137 10t-61 -4l-68 4v76q1 70 19 81t98 11t168 -9t139 -9t66 2l65 -2v-76zM408 940q-92 0 -112 -75t-22 -258q0 -183 2 -237q6 -161 55 -193q28 -17 77 -17q92 0 112 78t21 262q0 184 -2 237q-6 154 -55 186q-27 17 -76 17z
M92 545v127q0 247 37 310q13 25 31 52t41 37q23 11 63 27t139 16t159 -24t94 -53q69 -61 69 -443v-154q0 -257 -37 -318q-14 -23 -32 -51t-41 -39t-63 -29q-40 -17 -122 -17t-139 8t-121 63q-32 25 -55 114q-23 90 -23 374z" />
    <glyph glyph-name="odieresis" unicode="&#xf6;" horiz-adv-x="817" 
d="M465 1371q0 50 37 85t87 35t87 -35t37 -85t-37 -88t-86 -38t-87 38t-38 88zM233 1491q49 0 86 -35t37 -85t-37 -88t-85 -38t-86 38t-37 88q0 50 36 85q37 35 86 35zM408 940q-92 0 -112 -75t-22 -258q0 -183 2 -237q6 -161 55 -193q28 -17 77 -17q92 0 112 78t21 262
q0 184 -2 237q-6 154 -55 186q-27 17 -76 17zM92 545v127q0 247 37 310q13 25 31 52t41 37q23 11 63 27t139 16t159 -24t94 -53q69 -61 69 -443v-154q0 -257 -37 -318q-14 -23 -32 -51t-41 -39t-63 -29q-40 -17 -122 -17t-139 8t-121 63q-32 25 -55 114q-23 90 -23 374z" />
    <glyph glyph-name="divide" unicode="&#xf7;" horiz-adv-x="563" 
d="M53 682h482v-168h-482v168zM172 980q0 50 37 85t87 35t87 -35t37 -85t-38 -87t-87 -37t-86 37t-37 87zM160 124q0 50 37 85t86 35t86 -35t37 -85t-37 -87t-86 -37t-86 37t-37 87z" />
    <glyph glyph-name="oslash" unicode="&#xf8;" horiz-adv-x="806" 
d="M402 954q-38 0 -58 -7q-55 -19 -62 -128q-8 -108 -8 -314t17 -269q23 -86 105 -86t101 72q19 73 19 190v201q0 169 -12 238t-38 86t-64 17zM100 684q0 139 9 183q8 44 17 89q8 44 24 62t37 43q22 25 51 33q111 31 217 20l73 184h195l-107 -260q48 -59 60 -161t12 -213
v-115q0 -291 -11 -338q-29 -126 -55 -148t-66 -49t-161 -26q-27 0 -63 4l-68 -172h-192l100 248q-49 59 -60 161t-12 258v197z" />
    <glyph glyph-name="ugrave" unicode="&#xf9;" horiz-adv-x="841" 
d="M329 1583q25 0 45 -11t68 -65l154 -170l-115 -118l-270 270l55 55q39 39 63 39zM555 1100q137 0 161 -16t23 -107v-977q-121 0 -151 7t-33 48l-131 -69q-162 0 -252 80q-57 49 -66 270q-4 68 -4 219v545q137 0 160 -16t23 -107v-418q0 -241 11 -279t23 -67q20 -49 84 -53
l172 71l-20 62v807z" />
    <glyph glyph-name="uacute" unicode="&#xfa;" horiz-adv-x="841" 
d="M507 1583q24 0 81 -57l39 -37l-271 -270l-114 118l149 170q53 53 73 65t43 11zM555 1100q137 0 161 -16t23 -107v-977q-121 0 -151 7t-33 48l-131 -69q-162 0 -252 80q-57 49 -66 270q-4 68 -4 219v545q137 0 160 -16t23 -107v-418q0 -241 11 -279t23 -67q20 -49 84 -53
l172 71l-20 62v807z" />
    <glyph glyph-name="ucircumflex" unicode="&#xfb;" horiz-adv-x="841" 
d="M377 1579h69l267 -149v-185l-299 164l-299 -164v187zM555 1100q137 0 161 -16t23 -107v-977q-121 0 -151 7t-33 48l-131 -69q-162 0 -252 80q-57 49 -66 270q-4 68 -4 219v545q137 0 160 -16t23 -107v-418q0 -241 11 -279t23 -67q20 -49 84 -53l172 71l-20 62v807z" />
    <glyph glyph-name="udieresis" unicode="&#xfc;" horiz-adv-x="841" 
d="M481 1375q0 50 37 85t87 35t87 -35t37 -85t-37 -88t-86 -38t-87 38t-38 88zM127 1375q0 50 37 85t86 35t86 -35t37 -85t-37 -88t-85 -38t-86 38t-38 88zM555 1100q137 0 161 -16t23 -107v-977q-121 0 -151 7t-33 48l-131 -69q-162 0 -252 80q-57 49 -66 270q-4 68 -4 219
v545q137 0 160 -16t23 -107v-418q0 -241 11 -279t23 -67q20 -49 84 -53l172 71l-20 62v807z" />
    <glyph glyph-name="yacute" unicode="&#xfd;" horiz-adv-x="729" 
d="M82 -383v147q80 0 136 50t56 116q0 16 -2 27l-231 1143h80q107 0 116 -55q5 -27 11 -62l117 -737h30l125 854q108 0 138 -9t30 -57l-217 -1067q-31 -165 -75 -227t-91 -82q-106 -41 -223 -41zM450 1579q24 0 80 -57l39 -37l-270 -271l-115 119l150 170q52 53 72 65t44 11
z" />
    <glyph glyph-name="thorn" unicode="&#xfe;" horiz-adv-x="733" 
d="M92 -383v1858q133 1 157 -15t23 -110v-277l117 41q131 0 176 -27t69 -45t46 -81t29 -160q6 -96 6 -251q0 -156 -3 -222q-10 -216 -65 -267q-88 -76 -252 -75l-123 84v-316q0 -102 -22 -120q-23 -17 -158 -17zM530 538q0 224 -18 310t-96 92l-144 -37v-674l140 -69
q82 2 100 78t18 300z" />
    <glyph glyph-name="ydieresis" unicode="&#xff;" horiz-adv-x="729" 
d="M82 -383v147q80 0 136 50t56 116q0 16 -2 27l-231 1143h80q107 0 116 -55q5 -27 11 -62l117 -737h30l125 854q108 0 138 -9t30 -57l-217 -1067q-31 -165 -75 -227t-91 -82q-106 -41 -223 -41zM436 1363q0 50 37 85t87 35t87 -35t37 -85t-37 -88t-86 -38t-87 38t-38 88z
M82 1363q0 50 37 85t86 35t86 -35t37 -85t-37 -88t-85 -38t-86 38t-38 88z" />
    <glyph glyph-name="dotlessi" unicode="&#x131;" horiz-adv-x="452" 
d="M184 774h-153q0 117 17 136t120 20h188v-686h-172v530z" />
    <glyph glyph-name="Lslash" unicode="&#x141;" horiz-adv-x="759" 
d="M569 182q111 0 130 -16t20 -111v-55h-596v575h-162v168h162v732h51q111 1 130 -15t20 -110v-607h229v-168h-229v-342l-19 -51h264z" />
    <glyph glyph-name="lslash" unicode="&#x142;" horiz-adv-x="407" 
d="M123 774v701q135 1 159 -15t23 -110v-576h232v-168h-232v-614q-137 0 -160 15t-22 108v491h-178v168h178z" />
    <glyph glyph-name="OE" unicode="&#x152;" horiz-adv-x="1331" 
d="M1247 1300h-438l16 -73v-269l-16 -73h412v-183h-412l16 -71v-377l-16 -72h457v-182h-600l-183 -14q-98 0 -168 16q-69 16 -113 70t-68 98q-50 94 -50 540q0 236 3 322t23 201q19 115 62 158q104 109 315 108l179 -24h581v-175zM279 673q0 -279 18 -335t41 -96
q39 -74 141 -74l146 14v1116l-146 19q-100 -4 -142 -78t-50 -180t-8 -386z" />
    <glyph glyph-name="oe" unicode="&#x153;" horiz-adv-x="1253" 
d="M401 940q-92 0 -112 -75q-21 -75 -21 -258t2 -237q6 -161 55 -193q28 -17 76 -17q93 0 113 78t21 262q0 184 -3 237q-6 155 -54 186q-28 17 -77 17zM969 698q-1 142 -19 192t-99 50t-105 -34t-23 -144l-21 -64h267zM861 160q97 0 302 20v-160q-31 -4 -126 -19t-175 -15
q-160 0 -237 67q-67 -67 -209 -67t-186 26t-69 47q-25 20 -59 136q-16 62 -16 327v150q0 251 37 312q13 23 31 50t41 37q23 11 63 27t168 16q127 0 199 -59q72 59 212 59t181 -22q40 -22 62 -38t35 -52t25 -72t11 -258l20 -140l-460 -10q-1 -204 26 -283t124 -79z" />
    <glyph glyph-name="Scaron" unicode="&#x160;" horiz-adv-x="892" 
d="M471 1563h-70l-262 147v188l299 -165l299 165v-186zM602 431q0 49 -35 103t-65 80t-107 95q-77 67 -109 97q-133 124 -170 214q-24 57 -24 146q0 90 11 152t34 86t64 50q66 45 256 45l278 -59q-16 -117 -47 -137q-30 -26 -143 0l-78 14q-121 0 -148 -49q-16 -28 -19 -50
t-3 -67t39 -97t188 -180q129 -102 208 -195t79 -202q0 -213 -37 -303q-37 -91 -106 -131q-102 -57 -250 -57q-82 0 -191 19t-145 24v174q205 -20 299 -20t130 14t61 41t28 85q2 58 2 108z" />
    <glyph glyph-name="scaron" unicode="&#x161;" horiz-adv-x="710" 
d="M387 1182h-70l-262 147v189l299 -166l299 166v-187zM317 160q59 0 77 10t34 27q14 17 14 145q0 49 -184 188q-70 51 -128 128t-58 145q0 69 2 101t17 80t44 71q80 59 232 59l239 -49q-16 -119 -32 -132t-47 -13q-32 0 -74 6l-80 14q-85 0 -101 -33t-16 -80t59 -100
t132 -102t133 -122t59 -145q0 -72 -2 -108t-17 -96q-14 -58 -44 -90t-88 -56q-103 -42 -329 -2q-58 10 -85 14v160q184 -20 243 -20z" />
    <glyph glyph-name="Ydieresis" unicode="&#x178;" horiz-adv-x="837" 
d="M676 1475q74 -1 98 -9t23 -41q0 -33 -269 -718v-707h-45q-111 0 -130 15t-19 110v584l-293 766h80q88 -1 108 -15t54 -100l135 -412h31l174 527h53zM483 1705q0 50 37 85t87 35t87 -35t37 -85t-37 -88t-86 -38t-87 38t-38 88zM129 1705q0 50 37 85t86 35t86 -35t37 -85
t-37 -88t-85 -38t-86 38t-38 88z" />
    <glyph glyph-name="Zcaron" unicode="&#x17d;" horiz-adv-x="770" 
d="M555 182q109 0 128 -26t19 -156h-641v152l426 1148h-426q-1 129 15 151t108 22l525 2v-140l-437 -1153h283zM424 1563h-70l-262 147v188l299 -165l299 165v-186z" />
    <glyph glyph-name="zcaron" unicode="&#x17e;" horiz-adv-x="739" 
d="M430 1163h-70l-262 148v188l299 -166l299 166v-186zM668 0h-596v143l352 785h-313q0 128 15 150t107 22h410v-146l-369 -782h246q112 0 130 -22t18 -150z" />
    <glyph glyph-name="florin" unicode="&#x192;" horiz-adv-x="598" 
d="M545 719v-162h-199l12 -37v-733q-59 0 -83 2q-25 2 -51 14t-33 39t-7 74l2 602l13 39h-107v162h107l-13 51q0 228 42 282t132 54l195 -8q0 -100 -16 -118t-111 -22l-53 -2q-14 0 -15 -186l-12 -51h197z" />
    <glyph glyph-name="circumflex" unicode="&#x2c6;" horiz-adv-x="729" 
d="M328 1499h69l267 -149v-185l-299 164l-299 -164v187z" />
    <glyph glyph-name="caron" unicode="&#x2c7;" horiz-adv-x="724" 
d="M395 1163h-69l-263 148v188l299 -166l300 166v-186z" />
    <glyph glyph-name="breve" unicode="&#x2d8;" horiz-adv-x="729" 
d="M328 1499h69l267 -149v-185l-299 164l-299 -164v187z" />
    <glyph glyph-name="dotaccent" unicode="&#x2d9;" horiz-adv-x="372" 
d="M63 1366q0 57 41 96q42 39 98 39t98 -40t42 -96t-43 -98t-97 -42t-97 42q-42 42 -42 99z" />
    <glyph glyph-name="ring" unicode="&#x2da;" horiz-adv-x="514" 
d="M203 1307q0 -19 17 -37q38 -39 75 -1q16 17 16 39t-16 39q-17 17 -37 17t-38 -18q-17 -19 -17 -39zM258 1499q78 0 135 -56t57 -135q0 -80 -56 -136q-58 -56 -136 -56t-136 58q-58 57 -59 135q1 78 59 134t136 56z" />
    <glyph glyph-name="ogonek" unicode="&#x2db;" horiz-adv-x="514" 
d="M51 -195v70l92 195h179l-99 -220l258 -233h-227z" />
    <glyph glyph-name="tilde" unicode="&#x2dc;" horiz-adv-x="768" 
d="M659 1372q0 -70 -18 -82t-100 -12t-171 10q-88 10 -136 10t-62 -4l-68 4v76q0 70 18 81t130 11l289 -18q39 0 53 2l65 -2v-76z" />
    <glyph glyph-name="hungarumlaut" unicode="&#x2dd;" horiz-adv-x="829" 
d="M674 1499q25 0 71 -43l54 -51l-271 -270l-114 118l149 170q66 76 111 76zM314 1499q36 0 83 -51l45 -43l-270 -270l-117 118l152 170q71 76 107 76z" />
    <glyph glyph-name="Delta" unicode="&#x394;" 
 />
    <glyph glyph-name="Delta" unicode="&#x2206;" 
 />
    <glyph glyph-name="Omega" unicode="&#x3a9;" 
 />
    <glyph glyph-name="Omega" unicode="&#x2126;" 
 />
    <glyph glyph-name="pi" unicode="&#x3c0;" 
 />
    <glyph glyph-name="endash" unicode="&#x2013;" horiz-adv-x="778" 
d="M92 743h592v-168h-592v168z" />
    <glyph glyph-name="emdash" unicode="&#x2014;" horiz-adv-x="1198" 
d="M92 743h1012v-168h-1012v168z" />
    <glyph glyph-name="quoteleft" unicode="&#x2018;" horiz-adv-x="385" 
d="M287 1102q0 -51 -37 -86t-87 -35t-86 36t-36 83q0 88 123 321l41 78l108 -67l17 -35q-37 -109 -41 -153t-3 -84t1 -58z" />
    <glyph glyph-name="quoteright" unicode="&#x2019;" horiz-adv-x="380" 
d="M102 1306q0 56 -6 70q0 51 37 87t87 36t87 -36t37 -83q0 -86 -123 -323l-41 -78l-108 68l-17 36q47 167 47 223z" />
    <glyph glyph-name="quotesinglbase" unicode="&#x201a;" horiz-adv-x="350" 
d="M94 33v84q0 45 33 77t78 32t78 -32t33 -76t-40 -140q-39 -96 -79 -173l-39 -75l-95 59l-10 25q41 147 41 219z" />
    <glyph glyph-name="quotedblleft" unicode="&#x201c;" horiz-adv-x="696" 
d="M309 1102q0 -51 -37 -86t-87 -35t-86 36t-36 83t40 145t81 176l41 78l111 -67l14 -35q-41 -133 -41 -295zM608 1102q0 -51 -37 -86t-87 -35t-86 36t-36 83t40 145t81 176l41 78l111 -67l14 -35q-41 -133 -41 -295z" />
    <glyph glyph-name="quotedblright" unicode="&#x201d;" horiz-adv-x="696" 
d="M412 1376q0 51 37 87t87 36t86 -37t36 -83q-1 -83 -121 -322l-41 -78l-115 70l-10 34q41 148 41 293zM115 1376q0 51 37 87t86 36t86 -37t36 -82q0 -82 -122 -323l-39 -78l-111 68l-14 36q41 148 41 293z" />
    <glyph glyph-name="quotedblbase" unicode="&#x201e;" horiz-adv-x="684" 
d="M401 27v90q0 45 33 77t78 32t78 -32t33 -76t-39 -140t-80 -173l-39 -75l-96 59l-9 25q6 20 16 50t13 51q4 21 6 31t3 28q1 17 2 25t1 28zM113 117q0 45 32 77q33 32 78 32t78 -32t33 -75q0 -82 -119 -314l-39 -75l-94 59l-10 25q29 98 35 150t6 153z" />
    <glyph glyph-name="dagger" unicode="&#x2020;" horiz-adv-x="608" 
d="M385 6h-164v627l21 67h-226v142h226l-21 67v582h164v-582l-20 -67h229v-142h-229l20 -67v-627z" />
    <glyph glyph-name="daggerdbl" unicode="&#x2021;" horiz-adv-x="618" 
d="M20 627v141h228l-17 76l15 63h-226v140h226l-21 69v375h164v-375l-20 -69h229v-140h-231l16 -69l-14 -70h229v-141h-229l20 -68v-553h-164v555l21 66h-226z" />
    <glyph glyph-name="bullet" unicode="&#x2022;" horiz-adv-x="462" 
d="M66 614q0 68 49 116t117 48t117 -49q50 -49 50 -117t-50 -116q-49 -48 -117 -49q-68 0 -117 49q-49 50 -49 118z" />
    <glyph glyph-name="ellipsis" unicode="&#x2026;" horiz-adv-x="952" 
d="M647 117q0 45 34 77t78 32t77 -32q32 -32 32 -77t-32 -78t-77 -33q-44 0 -78 33t-34 78zM373 117q0 45 33 77q32 32 76 32t77 -32t33 -77t-33 -78t-77 -33t-76 33t-33 78zM84 117q0 45 33 77t78 32t77 -32t33 -77q0 -45 -33 -78q-34 -33 -78 -33t-77 33t-33 78z" />
    <glyph glyph-name="perthousand" unicode="&#x2030;" horiz-adv-x="765" 
d="M807 1475l-590 -1475h-205l592 1475h203z" />
    <glyph glyph-name="guilsinglleft" unicode="&#x2039;" horiz-adv-x="434" 
d="M37 584v61l151 326h177l-160 -357l160 -356h-179z" />
    <glyph glyph-name="guilsinglright" unicode="&#x203a;" horiz-adv-x="434" 
d="M397 645v-61l-147 -326h-178l161 356l-161 357h176z" />
    <glyph glyph-name="fraction" unicode="&#x2044;" horiz-adv-x="817" 
d="M807 1475l-590 -1475h-205l592 1475h203z" />
    <glyph glyph-name="Euro" unicode="&#x20ac;" horiz-adv-x="911" 
d="M551 954h-94q-61 0 -84 -34t-27 -136l-16 -34h14q141 -12 163 -12t58 5l60 -4v-69q1 -66 -17 -77t-112 -11t-152 6h-10l10 -27l-8 -35h8q114 -10 146 -10t69 6l59 -4v-69q0 -63 -18 -75q-38 -24 -256 -5h-8l8 -21q4 -114 28 -156t85 -42h221v-146l-221 -16
q-170 0 -225 79q-54 79 -60 293l8 21h-8q-68 0 -82 -4l-63 4v70q0 67 18 77t127 11h10l-10 24v12l10 27h-10q-61 0 -78 -4l-61 4v70q0 66 17 77t122 11h12l-10 35q10 184 66 253t217 68l221 -16q0 -110 -16 -128t-111 -18z" />
    <glyph glyph-name="trademark" unicode="&#x2122;" horiz-adv-x="1144" 
d="M332 715h-154v561l12 37h-114v162h360v-162h-114l10 -35v-563zM657 1122v-407h-153v760h139l121 -287h27l122 287h138v-760h-152v407h-18l-33 -123h-139l-35 123h-17z" />
    <glyph glyph-name="partialdiff" unicode="&#x2202;" 
 />
    <glyph glyph-name="product" unicode="&#x220f;" 
 />
    <glyph glyph-name="summation" unicode="&#x2211;" 
 />
    <glyph glyph-name="minus" unicode="&#x2212;" horiz-adv-x="667" 
d="M92 743h481v-168h-481v168z" />
    <glyph glyph-name="radical" unicode="&#x221a;" 
 />
    <glyph glyph-name="infinity" unicode="&#x221e;" 
 />
    <glyph glyph-name="integral" unicode="&#x222b;" 
 />
    <glyph glyph-name="approxequal" unicode="&#x2248;" 
 />
    <glyph glyph-name="notequal" unicode="&#x2260;" 
 />
    <glyph glyph-name="lessequal" unicode="&#x2264;" 
 />
    <glyph glyph-name="greaterequal" unicode="&#x2265;" 
 />
    <glyph glyph-name="lozenge" unicode="&#x25ca;" 
 />
    <glyph glyph-name="apple" 
 />
    </font>
</defs>
</svg>
